<?xml version="1.0" encoding="UTF-8"?>
<!DOCTYPE svg PUBLIC "-//W3C//DTD SVG 1.1//EN" "http://www.w3.org/Graphics/SVG/1.1/DTD/svg11.dtd">
<svg xmlns="http://www.w3.org/2000/svg" version="1.1" width="300px" height="298px" style="shape-rendering:geometricPrecision; text-rendering:geometricPrecision; image-rendering:optimizeQuality; fill-rule:evenodd; clip-rule:evenodd" xmlns:xlink="http://www.w3.org/1999/xlink">
<g><path style="opacity:0.847" fill="#6a3914" d="M 129.5,-0.5 C 130.5,-0.5 131.5,-0.5 132.5,-0.5C 132.5,-0.166667 132.5,0.166667 132.5,0.5C 127.967,1.98363 123.3,2.6503 118.5,2.5C 122.142,1.39341 125.809,0.393406 129.5,-0.5 Z"/></g>
<g><path style="opacity:1" fill="#924c1a" d="M 168.5,0.5 C 171.279,0.278632 173.946,0.611966 176.5,1.5C 176.5,1.83333 176.5,2.16667 176.5,2.5C 173.302,3.03562 170.635,2.36895 168.5,0.5 Z"/></g>
<g><path style="opacity:0.475" fill="#4c1d09" d="M 176.5,2.5 C 176.5,2.16667 176.5,1.83333 176.5,1.5C 180.687,2.21335 184.687,3.21335 188.5,4.5C 184.382,4.46959 180.382,3.80293 176.5,2.5 Z"/></g>
<g><path style="opacity:0.671" fill="#612b0e" d="M 118.5,2.5 C 116.162,4.03954 113.495,4.70621 110.5,4.5C 112.905,3.2318 115.572,2.56513 118.5,2.5 Z"/></g>
<g><path style="opacity:0.639" fill="#69320d" d="M 110.5,4.5 C 105.366,6.54301 100.033,8.20968 94.5,9.5C 99.3757,6.65413 104.709,4.98746 110.5,4.5 Z"/></g>
<g><path style="opacity:1" fill="#8a491a" d="M 189.5,4.5 C 193.537,5.06533 197.203,6.39867 200.5,8.5C 196.036,9.09138 192.369,7.75805 189.5,4.5 Z"/></g>
<g><path style="opacity:0.984" fill="#804218" d="M 200.5,8.5 C 202.553,8.40206 204.22,9.06873 205.5,10.5C 203.219,10.9227 201.552,10.256 200.5,8.5 Z"/></g>
<g><path style="opacity:1" fill="#8c4917" d="M 94.5,9.5 C 91.5026,12.4965 87.836,14.1631 83.5,14.5C 86.7403,12.049 90.4069,10.3824 94.5,9.5 Z"/></g>
<g><path style="opacity:1" fill="#7e3d14" d="M 205.5,10.5 C 210.251,11.7105 214.584,13.7105 218.5,16.5C 212.974,16.7823 208.641,14.7823 205.5,10.5 Z"/></g>
<g><path style="opacity:1" fill="#b72d03" d="M 282.5,108.5 C 279.789,108.815 277.456,108.148 275.5,106.5C 275.584,100.75 273.584,96.0833 269.5,92.5C 268.662,92.1583 268.328,91.4916 268.5,90.5C 267.621,85.2587 265.454,80.5921 262,76.5C 261.506,74.8659 261.34,73.1992 261.5,71.5C 258.5,71.8333 257.167,70.5 257.5,67.5C 254.64,64.9329 251.307,62.9329 247.5,61.5C 245.833,59.5 244.167,57.5 242.5,55.5C 241.167,52.1667 238.833,49.8333 235.5,48.5C 233.147,47.6597 231.147,46.3264 229.5,44.5C 228.415,42.4131 226.749,41.0798 224.5,40.5C 222.973,40.573 221.973,39.9063 221.5,38.5C 219.652,34.7445 216.652,32.7445 212.5,32.5C 209.394,28.2754 205.06,26.2754 199.5,26.5C 199.167,26.5 198.833,26.5 198.5,26.5C 198.047,25.5416 197.381,24.7083 196.5,24C 193.522,23.304 190.522,22.804 187.5,22.5C 185.328,21.1983 182.994,20.0317 180.5,19C 152.524,12.837 125.19,14.6704 98.5,24.5C 95.4727,26.6887 92.306,28.6887 89,30.5C 88.4387,29.9781 87.772,29.6448 87,29.5C 85.2399,30.6301 83.4066,31.6301 81.5,32.5C 81.8627,33.1835 82.1961,33.8501 82.5,34.5C 79.5176,34.9629 76.5176,35.2962 73.5,35.5C 73.5,36.8333 73.5,38.1667 73.5,39.5C 72.1667,39.5 70.8333,39.5 69.5,39.5C 69.5,40.8333 69.5,42.1667 69.5,43.5C 65.8333,44.8333 62.1667,46.1667 58.5,47.5C 58.8948,50.5225 57.8948,51.5225 55.5,50.5C 54.5762,52.3905 53.2429,53.8905 51.5,55C 52.6091,56.813 51.9424,57.6463 49.5,57.5C 49.5,59.1667 49.5,60.8333 49.5,62.5C 47.6181,65.6227 45.2848,68.2894 42.5,70.5C 40.9139,71.4132 39.4139,71.4132 38,70.5C 36.9379,75.0023 35.4379,79.3357 33.5,83.5C 31.461,84.911 30.461,86.911 30.5,89.5C 24.7608,94.0351 21.7608,100.035 21.5,107.5C 19.4352,107.517 17.4352,107.85 15.5,108.5C 27.3846,77.2928 47.0512,52.2928 74.5,33.5C 130.604,1.63527 184.604,4.80194 236.5,43C 257.413,61.0194 272.746,82.8527 282.5,108.5 Z M 136.5,44.5 C 152.097,43.5691 167.43,45.0691 182.5,49C 184.996,50.0804 187.33,51.4138 189.5,53C 176.372,54.1067 163.206,54.6067 150,54.5C 136.136,54.5868 122.302,54.0868 108.5,53C 117.436,48.4574 126.769,45.6241 136.5,44.5 Z"/></g>
<g><path style="opacity:0.82" fill="#672c0e" d="M 218.5,16.5 C 220.882,17.3507 222.882,18.684 224.5,20.5C 221.733,20.1298 219.733,18.7964 218.5,16.5 Z"/></g>
<g><path style="opacity:1" fill="#c66410" d="M 83.5,14.5 C 82.7352,16.929 81.0685,18.2623 78.5,18.5C 78.5,19.8333 78.5,21.1667 78.5,22.5C 74.2516,22.6975 70.2516,23.6975 66.5,25.5C 66.5,25.1667 66.5,24.8333 66.5,24.5C 68.0269,24.573 69.0269,23.9063 69.5,22.5C 73.5067,18.8255 78.1734,16.1588 83.5,14.5 Z"/></g>
<g><path style="opacity:0.776" fill="#562d14" d="M 225.5,20.5 C 226.71,20.9321 227.71,21.5987 228.5,22.5C 226.821,22.7148 225.821,22.0481 225.5,20.5 Z"/></g>
<g><path style="opacity:0.498" fill="#411d09" d="M 69.5,22.5 C 69.0269,23.9063 68.0269,24.573 66.5,24.5C 66.9731,23.0937 67.9731,22.427 69.5,22.5 Z"/></g>
<g><path style="opacity:1" fill="#752210" d="M 187.5,22.5 C 150.938,12.6273 115.938,16.6273 82.5,34.5C 82.1961,33.8501 81.8627,33.1835 81.5,32.5C 83.4066,31.6301 85.2399,30.6301 87,29.5C 87.772,29.6448 88.4387,29.9781 89,30.5C 92.306,28.6887 95.4727,26.6887 98.5,24.5C 125.19,14.6704 152.524,12.837 180.5,19C 182.994,20.0317 185.328,21.1983 187.5,22.5 Z"/></g>
<g><path style="opacity:0.624" fill="#663412" d="M 66.5,24.5 C 66.5,24.8333 66.5,25.1667 66.5,25.5C 64.9236,26.1429 63.5903,27.1429 62.5,28.5C 61.8333,28.5 61.1667,28.5 60.5,28.5C 61.8021,26.1782 63.8021,24.8449 66.5,24.5 Z"/></g>
<g><path style="opacity:1" fill="#9d531a" d="M 228.5,22.5 C 231.709,24.2651 234.709,26.2651 237.5,28.5C 234.657,28.0828 231.99,27.0828 229.5,25.5C 228.873,24.5832 228.539,23.5832 228.5,22.5 Z"/></g>
<g><path style="opacity:0.447" fill="#4a1e0a" d="M 238.5,28.5 C 240.167,29.5 241.5,30.8333 242.5,32.5C 240.167,32.1667 238.833,30.8333 238.5,28.5 Z"/></g>
<g><path style="opacity:1" fill="#454e61" d="M 211.5,47.5 C 211.611,48.1174 211.944,48.6174 212.5,49C 208.5,49.6667 204.5,49.6667 200.5,49C 166.165,32.361 131.832,32.361 97.5,49C 92.9796,49.8136 88.6463,49.647 84.5,48.5C 92.2908,42.6046 100.957,38.2712 110.5,35.5C 119.328,33.6562 127.995,31.6562 136.5,29.5C 163.858,26.2573 188.858,32.2573 211.5,47.5 Z"/></g>
<g><path style="opacity:1" fill="#71210f" d="M 212.5,32.5 C 216.652,32.7445 219.652,34.7445 221.5,38.5C 218.32,36.7451 215.32,34.7451 212.5,32.5 Z"/></g>
<g><path style="opacity:0.686" fill="#713410" d="M 56.5,31.5 C 53.7689,35.2343 50.4356,38.2343 46.5,40.5C 49.2311,36.7657 52.5644,33.7657 56.5,31.5 Z"/></g>
<g><path style="opacity:1" fill="#f36704" d="M 74.5,33.5 C 47.0512,52.2928 27.3846,77.2928 15.5,108.5C 13.1667,108.5 10.8333,108.5 8.5,108.5C 10.6522,102.167 11.9855,95.5005 12.5,88.5C 13.7348,88.2786 14.7348,87.6119 15.5,86.5C 16.086,86.7093 16.586,87.0426 17,87.5C 17.5482,83.8296 18.0482,80.1629 18.5,76.5C 21.4603,73.8779 24.4603,71.2113 27.5,68.5C 27.9819,65.2972 29.3152,62.6306 31.5,60.5C 33.1343,61.9717 34.6343,63.6383 36,65.5C 37.4114,63.3496 38.2447,61.0163 38.5,58.5C 41.7794,57.9694 43.1128,55.9694 42.5,52.5C 41.1779,52.33 40.0113,52.6634 39,53.5C 38.3333,52.8333 38.3333,52.1667 39,51.5C 40.3333,50.8333 41.3333,49.8333 42,48.5C 42.3333,48.8333 42.6667,49.1667 43,49.5C 44.7172,48.0118 45.8839,46.1785 46.5,44C 47.7932,43.51 49.1266,43.3433 50.5,43.5C 50.2865,41.8561 50.6198,40.3561 51.5,39C 54.9612,36.276 58.9612,34.6093 63.5,34C 61.3652,32.4443 61.0319,30.6109 62.5,28.5C 64.1368,27.7822 65.8034,27.6155 67.5,28C 66.6198,29.3561 66.2865,30.8561 66.5,32.5C 69.2788,32.2786 71.9455,32.612 74.5,33.5 Z"/></g>
<g><path style="opacity:0.898" fill="#1f2434" d="M 136.5,29.5 C 127.995,31.6562 119.328,33.6562 110.5,35.5C 118.736,32.0981 127.403,30.0981 136.5,29.5 Z"/></g>
<g><path style="opacity:1" fill="#894817" d="M 242.5,32.5 C 245.06,34.2733 247.393,36.2733 249.5,38.5C 245.915,37.8785 243.581,35.8785 242.5,32.5 Z"/></g>
<g><path style="opacity:1" fill="#1a2132" d="M 211.5,47.5 C 215.732,49.4002 219.399,52.0669 222.5,55.5C 173.499,55.3333 124.499,55.5 75.5,56C 74.6266,57.045 73.6266,57.8783 72.5,58.5C 72.5106,56.9826 73.1772,55.8159 74.5,55C 78.0035,52.9778 81.3368,50.8112 84.5,48.5C 88.6463,49.647 92.9796,49.8136 97.5,49C 131.832,32.361 166.165,32.361 200.5,49C 204.5,49.6667 208.5,49.6667 212.5,49C 211.944,48.6174 211.611,48.1174 211.5,47.5 Z M 136.5,44.5 C 126.769,45.6241 117.436,48.4574 108.5,53C 122.302,54.0868 136.136,54.5868 150,54.5C 163.206,54.6067 176.372,54.1067 189.5,53C 187.33,51.4138 184.996,50.0804 182.5,49C 167.43,45.0691 152.097,43.5691 136.5,44.5 Z"/></g>
<g><path style="opacity:1" fill="#7e220f" d="M 82.5,34.5 C 78.3493,37.7438 74.0159,40.7438 69.5,43.5C 69.5,42.1667 69.5,40.8333 69.5,39.5C 70.8333,39.5 72.1667,39.5 73.5,39.5C 73.5,38.1667 73.5,36.8333 73.5,35.5C 76.5176,35.2962 79.5176,34.9629 82.5,34.5 Z"/></g>
<g><path style="opacity:0.745" fill="#471208" d="M 224.5,40.5 C 226.749,41.0798 228.415,42.4131 229.5,44.5C 227.251,43.9202 225.585,42.5869 224.5,40.5 Z"/></g>
<g><path style="opacity:0.859" fill="#5b160c" d="M 235.5,48.5 C 238.833,49.8333 241.167,52.1667 242.5,55.5C 239.833,53.5 237.5,51.1667 235.5,48.5 Z"/></g>
<g><path style="opacity:1" fill="#84230d" d="M 69.5,43.5 C 62.2018,49.1305 55.5352,55.4639 49.5,62.5C 49.5,60.8333 49.5,59.1667 49.5,57.5C 51.9424,57.6463 52.6091,56.813 51.5,55C 53.2429,53.8905 54.5762,52.3905 55.5,50.5C 57.8948,51.5225 58.8948,50.5225 58.5,47.5C 62.1667,46.1667 65.8333,44.8333 69.5,43.5 Z"/></g>
<g><path style="opacity:1" fill="#8c4a14" d="M 38.5,48.5 C 37.9321,52.0674 35.9321,54.4007 32.5,55.5C 33.7573,52.5726 35.7573,50.2393 38.5,48.5 Z"/></g>
<g><path style="opacity:1" fill="#a45519" d="M 257.5,46.5 C 261.308,50.1216 264.641,54.1216 267.5,58.5C 262.349,56.0158 259.016,52.0158 257.5,46.5 Z"/></g>
<g><path style="opacity:1" fill="#e46607" d="M 60.5,28.5 C 61.1667,28.5 61.8333,28.5 62.5,28.5C 61.0319,30.6109 61.3652,32.4443 63.5,34C 58.9612,34.6093 54.9612,36.276 51.5,39C 50.6198,40.3561 50.2865,41.8561 50.5,43.5C 49.1266,43.3433 47.7932,43.51 46.5,44C 45.8839,46.1785 44.7172,48.0118 43,49.5C 42.6667,49.1667 42.3333,48.8333 42,48.5C 41.3333,49.8333 40.3333,50.8333 39,51.5C 38.3333,52.1667 38.3333,52.8333 39,53.5C 40.0113,52.6634 41.1779,52.33 42.5,52.5C 43.1128,55.9694 41.7794,57.9694 38.5,58.5C 38.2447,61.0163 37.4114,63.3496 36,65.5C 34.6343,63.6383 33.1343,61.9717 31.5,60.5C 32.1098,59.609 32.4431,58.609 32.5,57.5C 32.5,56.8333 32.5,56.1667 32.5,55.5C 35.9321,54.4007 37.9321,52.0674 38.5,48.5C 40.8333,45.5 43.5,42.8333 46.5,40.5C 50.4356,38.2343 53.7689,35.2343 56.5,31.5C 57.2623,29.7376 58.5956,28.7376 60.5,28.5 Z"/></g>
<g><path style="opacity:0.239" fill="#401a05" d="M 32.5,55.5 C 32.5,56.1667 32.5,56.8333 32.5,57.5C 31.8333,57.8333 31.1667,58.1667 30.5,58.5C 30.427,56.9731 31.0937,55.9731 32.5,55.5 Z"/></g>
<g><path style="opacity:1" fill="#515c72" d="M 222.5,55.5 C 225.874,58.5095 229.208,61.5095 232.5,64.5C 232.511,66.0174 233.177,67.1841 234.5,68C 177.5,68.6667 120.5,68.6667 63.5,68C 64.8228,67.1841 65.4894,66.0174 65.5,64.5C 67.2393,61.7573 69.5726,59.7573 72.5,58.5C 73.6266,57.8783 74.6266,57.045 75.5,56C 124.499,55.5 173.499,55.3333 222.5,55.5 Z"/></g>
<g><path style="opacity:0.988" fill="#944715" d="M 267.5,58.5 C 269.984,60.8003 271.984,63.4669 273.5,66.5C 269.62,65.2814 267.62,62.6147 267.5,58.5 Z"/></g>
<g><path style="opacity:1" fill="#ad5415" d="M 32.5,57.5 C 32.4431,58.609 32.1098,59.609 31.5,60.5C 29.3152,62.6306 27.9819,65.2972 27.5,68.5C 24.4603,71.2113 21.4603,73.8779 18.5,76.5C 21.5107,69.8035 25.5107,63.8035 30.5,58.5C 31.1667,58.1667 31.8333,57.8333 32.5,57.5 Z"/></g>
<g><path style="opacity:1" fill="#f26b06" d="M 133.5,-0.5 C 145.167,-0.5 156.833,-0.5 168.5,-0.5C 168.5,-0.166667 168.5,0.166667 168.5,0.5C 170.635,2.36895 173.302,3.03562 176.5,2.5C 180.382,3.80293 184.382,4.46959 188.5,4.5C 188.833,4.5 189.167,4.5 189.5,4.5C 192.369,7.75805 196.036,9.09138 200.5,8.5C 201.552,10.256 203.219,10.9227 205.5,10.5C 208.641,14.7823 212.974,16.7823 218.5,16.5C 219.733,18.7964 221.733,20.1298 224.5,20.5C 224.833,20.5 225.167,20.5 225.5,20.5C 225.821,22.0481 226.821,22.7148 228.5,22.5C 228.539,23.5832 228.873,24.5832 229.5,25.5C 231.99,27.0828 234.657,28.0828 237.5,28.5C 237.833,28.5 238.167,28.5 238.5,28.5C 238.833,30.8333 240.167,32.1667 242.5,32.5C 243.581,35.8785 245.915,37.8785 249.5,38.5C 252.5,40.8333 255.167,43.5 257.5,46.5C 259.016,52.0158 262.349,56.0158 267.5,58.5C 267.62,62.6147 269.62,65.2814 273.5,66.5C 273.365,69.507 274.365,72.007 276.5,74C 274.521,77.5441 275.521,79.3774 279.5,79.5C 280.167,81.8333 280.833,84.1667 281.5,86.5C 282.5,86.5 283.5,86.5 284.5,86.5C 284.5,86.8333 284.5,87.1667 284.5,87.5C 284.427,89.0269 285.094,90.0269 286.5,90.5C 286.5,90.8333 286.5,91.1667 286.5,91.5C 286.77,95.3576 288.103,98.691 290.5,101.5C 290.5,101.833 290.5,102.167 290.5,102.5C 290.5,104.5 290.5,106.5 290.5,108.5C 287.833,108.5 285.167,108.5 282.5,108.5C 272.746,82.8527 257.413,61.0194 236.5,43C 184.604,4.80194 130.604,1.63527 74.5,33.5C 71.9455,32.612 69.2788,32.2786 66.5,32.5C 66.2865,30.8561 66.6198,29.3561 67.5,28C 65.8034,27.6155 64.1368,27.7822 62.5,28.5C 63.5903,27.1429 64.9236,26.1429 66.5,25.5C 70.2516,23.6975 74.2516,22.6975 78.5,22.5C 78.5,21.1667 78.5,19.8333 78.5,18.5C 81.0685,18.2623 82.7352,16.929 83.5,14.5C 87.836,14.1631 91.5026,12.4965 94.5,9.5C 100.033,8.20968 105.366,6.54301 110.5,4.5C 113.495,4.70621 116.162,4.03954 118.5,2.5C 123.3,2.6503 127.967,1.98363 132.5,0.5C 133.167,0.5 133.5,0.166667 133.5,-0.5 Z"/></g>
<g><path style="opacity:1" fill="#71240e" d="M 199.5,26.5 C 205.06,26.2754 209.394,28.2754 212.5,32.5C 207.715,31.2494 203.381,29.2494 199.5,26.5 Z"/></g>
<g><path style="opacity:1" fill="#6e2211" d="M 187.5,22.5 C 190.522,22.804 193.522,23.304 196.5,24C 197.381,24.7083 198.047,25.5416 198.5,26.5C 194.605,25.5376 190.939,24.2043 187.5,22.5 Z"/></g>
<g><path style="opacity:1" fill="#1b2334" d="M 65.5,64.5 C 65.4894,66.0174 64.8228,67.1841 63.5,68C 120.5,68.6667 177.5,68.6667 234.5,68C 233.177,67.1841 232.511,66.0174 232.5,64.5C 233.833,65.1667 234.833,66.1667 235.5,67.5C 236.363,68.9403 236.363,70.2736 235.5,71.5C 236.5,72.1667 237.5,72.8333 238.5,73.5C 178.001,74.8315 117.668,74.8315 57.5,73.5C 59.4302,69.8998 62.0969,66.8998 65.5,64.5 Z"/></g>
<g><path style="opacity:1" fill="#6f1a0d" d="M 42.5,70.5 C 39.734,75.0449 36.734,79.3782 33.5,83.5C 35.4379,79.3357 36.9379,75.0023 38,70.5C 39.4139,71.4132 40.9139,71.4132 42.5,70.5 Z"/></g>
<g><path style="opacity:1" fill="#842810" d="M 247.5,61.5 C 251.307,62.9329 254.64,64.9329 257.5,67.5C 257.167,70.5 258.5,71.8333 261.5,71.5C 261.34,73.1992 261.506,74.8659 262,76.5C 265.454,80.5921 267.621,85.2587 268.5,90.5C 262.736,79.9869 255.736,70.3202 247.5,61.5 Z"/></g>
<g><path style="opacity:0.652" fill="#090d1c" d="M 235.5,67.5 C 237.899,68.8982 239.566,70.8982 240.5,73.5C 240.182,74.6473 239.516,75.4806 238.5,76C 178.5,76.6667 118.5,76.6667 58.5,76C 56.6412,75.3992 56.3079,74.5659 57.5,73.5C 117.668,74.8315 178.001,74.8315 238.5,73.5C 237.5,72.8333 236.5,72.1667 235.5,71.5C 236.363,70.2736 236.363,68.9403 235.5,67.5 Z"/></g>
<g><path style="opacity:0.153" fill="#411505" d="M 278.5,74.5 C 279.906,74.9731 280.573,75.9731 280.5,77.5C 279.094,77.0269 278.427,76.0269 278.5,74.5 Z"/></g>
<g><path style="opacity:1" fill="#bc5e16" d="M 273.5,66.5 C 275.95,68.6291 277.617,71.2957 278.5,74.5C 278.427,76.0269 279.094,77.0269 280.5,77.5C 282.204,80.2558 283.537,83.2558 284.5,86.5C 283.5,86.5 282.5,86.5 281.5,86.5C 280.833,84.1667 280.167,81.8333 279.5,79.5C 275.521,79.3774 274.521,77.5441 276.5,74C 274.365,72.007 273.365,69.507 273.5,66.5 Z"/></g>
<g><path style="opacity:1" fill="#b75912" d="M 18.5,76.5 C 18.0482,80.1629 17.5482,83.8296 17,87.5C 16.586,87.0426 16.086,86.7093 15.5,86.5C 14.7348,87.6119 13.7348,88.2786 12.5,88.5C 13.9922,84.1822 15.9922,80.1822 18.5,76.5 Z"/></g>
<g><path style="opacity:0.51" fill="#4b1109" d="M 33.5,83.5 C 33.0075,85.8185 32.0075,87.8185 30.5,89.5C 30.461,86.911 31.461,84.911 33.5,83.5 Z"/></g>
<g><path style="opacity:0.133" fill="#411106" d="M 284.5,87.5 C 285.906,87.9731 286.573,88.9731 286.5,90.5C 285.094,90.0269 284.427,89.0269 284.5,87.5 Z"/></g>
<g><path style="opacity:0.365" fill="#5a5f66" d="M 53.5,91.5 C 47.5,91.5 41.5,91.5 35.5,91.5C 35.5,92.5 35.5,93.5 35.5,94.5C 34.5655,93.4324 34.2322,92.099 34.5,90.5C 41.0221,90.1765 47.3554,90.5098 53.5,91.5 Z"/></g>
<g><path style="opacity:0.435" fill="#5f626c" d="M 93.5,91.5 C 89.8215,91.0604 86.4882,91.727 83.5,93.5C 83.5,92.5 83.5,91.5 83.5,90.5C 87.0419,90.1872 90.3752,90.5206 93.5,91.5 Z"/></g>
<g><path style="opacity:0.282" fill="#4d5057" d="M 123.5,91.5 C 130.011,90.1819 136.678,90.1819 143.5,91.5C 143.376,92.1067 143.043,92.44 142.5,92.5C 136.355,91.5098 130.022,91.1765 123.5,91.5 Z"/></g>
<g><path style="opacity:1" fill="#f4f5f5" d="M 53.5,91.5 C 58.9727,112.058 64.1394,132.724 69,153.5C 73.2628,133.35 78.0961,113.35 83.5,93.5C 86.4882,91.727 89.8215,91.0604 93.5,91.5C 98.5046,112.519 103.671,133.519 109,154.5C 113.329,133.355 118.162,112.355 123.5,91.5C 130.022,91.1765 136.355,91.5098 142.5,92.5C 140.878,101.283 138.878,109.95 136.5,118.5C 134.339,125.67 132.339,133.003 130.5,140.5C 127.972,153.61 124.972,166.61 121.5,179.5C 113.252,180.469 104.918,180.802 96.5,180.5C 94.171,168.844 91.671,157.177 89,145.5C 86.6857,156.908 84.1857,168.242 81.5,179.5C 73.9127,180.631 66.246,180.798 58.5,180C 57.3094,179.302 56.3094,178.469 55.5,177.5C 48.9964,149.818 42.3297,122.151 35.5,94.5C 35.5,93.5 35.5,92.5 35.5,91.5C 41.5,91.5 47.5,91.5 53.5,91.5 Z"/></g>
<g><path style="opacity:1" fill="#f4f5f5" d="M 227.5,196.5 C 211.23,196.865 198.23,190.532 188.5,177.5C 187.014,174.706 186.347,171.706 186.5,168.5C 187.213,161.851 187.546,155.184 187.5,148.5C 188.675,136.524 185.175,126.191 177,117.5C 176.5,108.506 176.334,99.5062 176.5,90.5C 189.504,90.3334 202.504,90.5001 215.5,91C 245.908,96.7441 262.242,115.077 264.5,146C 263.465,171.277 251.132,188.111 227.5,196.5 Z M 195.5,109.5 C 211.642,107.047 225.475,111.714 237,123.5C 247.248,140.121 246.081,155.954 233.5,171C 222.058,178.854 209.391,181.688 195.5,179.5C 195.5,156.167 195.5,132.833 195.5,109.5 Z"/></g>
<g><path style="opacity:0.878" fill="#682b12" d="M 286.5,91.5 C 288.4,94.5178 289.733,97.8512 290.5,101.5C 288.103,98.691 286.77,95.3576 286.5,91.5 Z"/></g>
<g><path style="opacity:1" fill="#7c2c15" d="M 12.5,88.5 C 11.9855,95.5005 10.6522,102.167 8.5,108.5C 10.8333,108.5 13.1667,108.5 15.5,108.5C 17.4352,107.85 19.4352,107.517 21.5,107.5C 21.7608,100.035 24.7608,94.0351 30.5,89.5C 27.4018,96.2962 24.4018,103.129 21.5,110C 16.5,110.667 11.5,110.667 6.5,110C 5.97814,109.439 5.6448,108.772 5.5,108C 7.57154,101.276 9.90487,94.7765 12.5,88.5 Z"/></g>
<g><path style="opacity:1" fill="#631c10" d="M 269.5,92.5 C 273.584,96.0833 275.584,100.75 275.5,106.5C 272.965,102.093 270.965,97.4259 269.5,92.5 Z"/></g>
<g><path style="opacity:0.918" fill="#72371d" d="M 290.5,102.5 C 292.358,104.774 292.691,107.274 291.5,110C 286.5,110.667 281.5,110.667 276.5,110C 275.663,108.989 275.33,107.822 275.5,106.5C 277.456,108.148 279.789,108.815 282.5,108.5C 285.167,108.5 287.833,108.5 290.5,108.5C 290.5,106.5 290.5,104.5 290.5,102.5 Z"/></g>
<g><path style="opacity:0.999" fill="#475063" d="M 153.5,182.5 C 152.539,184.265 152.205,186.265 152.5,188.5C 158.167,188.5 163.833,188.5 169.5,188.5C 170.167,188.5 170.833,188.5 171.5,188.5C 173.167,188.5 174.833,188.5 176.5,188.5C 176.5,192.5 176.5,196.5 176.5,200.5C 163.252,200.852 150.085,200.852 137,200.5C 135.774,192.51 136.107,184.51 138,176.5C 145.962,166.869 154.296,157.536 163,148.5C 167.597,138.118 164.43,131.451 153.5,128.5C 146.808,129.192 143.141,132.858 142.5,139.5C 138.24,139.695 134.24,140.028 130.5,140.5C 132.339,133.003 134.339,125.67 136.5,118.5C 151.569,110.428 164.735,112.761 176,125.5C 182.275,136.752 181.942,147.752 175,158.5C 166.884,165.775 159.718,173.775 153.5,182.5 Z"/></g>
<g><path style="opacity:0.625" fill="#4e1307" d="M 17.5,130.5 C 17.5,128.833 17.5,127.167 17.5,125.5C 12.5,125.5 7.5,125.5 2.5,125.5C 2.5,127.167 2.5,128.833 2.5,130.5C 1.83333,132.5 1.16667,134.5 0.5,136.5C 0.33591,133.813 0.502577,131.146 1,128.5C 1.19917,126.598 2.03251,125.098 3.5,124C 8.21212,124.285 12.8788,124.285 17.5,124C 18.8112,126.274 18.8112,128.44 17.5,130.5 Z"/></g>
<g><path style="opacity:0.655" fill="#4a1206" d="M 299.5,143.5 C 299.5,147.833 299.5,152.167 299.5,156.5C 298.718,161.537 297.718,166.537 296.5,171.5C 296.936,164.176 297.269,156.843 297.5,149.5C 297.628,142.276 296.961,135.276 295.5,128.5C 295.5,128.167 295.5,127.833 295.5,127.5C 290.944,125.558 285.944,124.892 280.5,125.5C 280.5,126.833 280.5,128.167 280.5,129.5C 279.193,127.777 279.193,125.943 280.5,124C 285.426,123.485 290.426,123.652 295.5,124.5C 297.664,130.765 298.997,137.099 299.5,143.5 Z"/></g>
<g><path style="opacity:1" fill="#be2a01" d="M 295.5,127.5 C 295.5,127.833 295.5,128.167 295.5,128.5C 295.769,143.862 295.436,159.195 294.5,174.5C 290.865,173.886 287.198,173.552 283.5,173.5C 283.5,157.833 283.5,142.167 283.5,126.5C 287.566,126.307 291.566,126.64 295.5,127.5 Z"/></g>
<g><path style="opacity:1" fill="#b72a04" d="M 17.5,130.5 C 16.7817,139.482 16.4484,148.482 16.5,157.5C 16.3347,161.182 16.5014,164.848 17,168.5C 17.2784,169.416 17.7784,170.082 18.5,170.5C 18.5,171.167 18.5,171.833 18.5,172.5C 18.5,173.5 18.5,174.5 18.5,175.5C 16.901,175.232 15.5676,175.566 14.5,176.5C 13.1667,176.5 11.8333,176.5 10.5,176.5C 8.13895,176.326 5.80562,175.993 3.5,175.5C 3.87988,173.302 3.21321,171.635 1.5,170.5C 1.5,170.167 1.5,169.833 1.5,169.5C 1.33933,156.482 1.67266,143.482 2.5,130.5C 2.5,128.833 2.5,127.167 2.5,125.5C 7.5,125.5 12.5,125.5 17.5,125.5C 17.5,127.167 17.5,128.833 17.5,130.5 Z"/></g>
<g><path style="opacity:0.325" fill="#53180f" d="M 280.5,130.5 C 281.828,135.456 282.495,140.789 282.5,146.5C 282.499,152.011 282.166,157.344 281.5,162.5C 281.709,151.806 281.375,141.14 280.5,130.5 Z"/></g>
<g><path style="opacity:0.969" fill="#6d1e11" d="M 2.5,130.5 C 1.67266,143.482 1.33933,156.482 1.5,169.5C 0.833333,166.833 0.166667,164.167 -0.5,161.5C -0.5,153.5 -0.5,145.5 -0.5,137.5C 0.166667,137.5 0.5,137.167 0.5,136.5C 1.16667,134.5 1.83333,132.5 2.5,130.5 Z"/></g>
<g><path style="opacity:0.651" fill="#470f0b" d="M 16.5,157.5 C 17.4489,161.657 18.1156,165.99 18.5,170.5C 17.7784,170.082 17.2784,169.416 17,168.5C 16.5014,164.848 16.3347,161.182 16.5,157.5 Z"/></g>
<g><path style="opacity:0.655" fill="#301110" d="M 280.5,168.5 C 280.5,171.167 280.5,173.833 280.5,176.5C 281.833,176.5 283.167,176.5 284.5,176.5C 282.777,177.807 280.943,177.807 279,176.5C 278.807,173.636 279.307,170.97 280.5,168.5 Z"/></g>
<g><path style="opacity:1" fill="#ae2f0c" d="M 295.5,127.5 C 291.566,126.64 287.566,126.307 283.5,126.5C 283.5,142.167 283.5,157.833 283.5,173.5C 287.198,173.552 290.865,173.886 294.5,174.5C 295.436,159.195 295.769,143.862 295.5,128.5C 296.961,135.276 297.628,142.276 297.5,149.5C 297.269,156.843 296.936,164.176 296.5,171.5C 296.5,172.167 296.5,172.833 296.5,173.5C 291.807,175.36 286.807,176.026 281.5,175.5C 281.5,171.167 281.5,166.833 281.5,162.5C 282.166,157.344 282.499,152.011 282.5,146.5C 282.495,140.789 281.828,135.456 280.5,130.5C 280.5,130.167 280.5,129.833 280.5,129.5C 280.5,128.167 280.5,126.833 280.5,125.5C 285.944,124.892 290.944,125.558 295.5,127.5 Z"/></g>
<g><path style="opacity:0.725" fill="#46160c" d="M 1.5,170.5 C 3.21321,171.635 3.87988,173.302 3.5,175.5C 5.80562,175.993 8.13895,176.326 10.5,176.5C 4.41634,179.195 1.41634,177.195 1.5,170.5 Z"/></g>
<g><path style="opacity:0.627" fill="#481309" d="M 18.5,172.5 C 20.2602,176.74 18.9269,178.074 14.5,176.5C 15.5676,175.566 16.901,175.232 18.5,175.5C 18.5,174.5 18.5,173.5 18.5,172.5 Z"/></g>
<g><path style="opacity:0.686" fill="#60180a" d="M 281.5,162.5 C 281.5,166.833 281.5,171.167 281.5,175.5C 286.807,176.026 291.807,175.36 296.5,173.5C 296.67,174.822 296.337,175.989 295.5,177C 291.797,177.579 288.131,177.412 284.5,176.5C 283.167,176.5 281.833,176.5 280.5,176.5C 280.5,173.833 280.5,171.167 280.5,168.5C 280.205,166.265 280.539,164.265 281.5,162.5 Z"/></g>
<g><path style="opacity:1" fill="#bfc6d0" d="M 121.5,179.5 C 120.215,186.59 118.549,193.59 116.5,200.5C 111.208,201.495 105.875,201.828 100.5,201.5C 99.0084,194.533 97.675,187.533 96.5,180.5C 104.918,180.802 113.252,180.469 121.5,179.5 Z"/></g>
<g><path style="opacity:1" fill="#c0c7d1" d="M 55.5,177.5 C 56.3094,178.469 57.3094,179.302 58.5,180C 66.246,180.798 73.9127,180.631 81.5,179.5C 80.3223,186.554 78.8223,193.554 77,200.5C 71.918,201.637 66.7513,201.804 61.5,201C 58.8047,193.361 56.8047,185.528 55.5,177.5 Z"/></g>
<g><path style="opacity:0.037" fill="#010218" d="M 153.5,182.5 C 153.5,184.167 153.5,185.833 153.5,187.5C 159.026,187.179 164.36,187.512 169.5,188.5C 163.833,188.5 158.167,188.5 152.5,188.5C 152.205,186.265 152.539,184.265 153.5,182.5 Z"/></g>
<g><path style="opacity:0.008" fill="#0b0d1b" d="M 176.5,172.5 C 176.5,177.833 176.5,183.167 176.5,188.5C 174.833,188.5 173.167,188.5 171.5,188.5C 172.568,187.566 173.901,187.232 175.5,187.5C 175.179,182.305 175.513,177.305 176.5,172.5 Z"/></g>
<g><path style="opacity:1" fill="#cdd2dd" d="M 187.5,148.5 C 187.546,155.184 187.213,161.851 186.5,168.5C 186.347,171.706 187.014,174.706 188.5,177.5C 198.23,190.532 211.23,196.865 227.5,196.5C 224.094,198.109 220.427,199.276 216.5,200C 203.171,200.5 189.837,200.667 176.5,200.5C 176.5,196.5 176.5,192.5 176.5,188.5C 176.5,183.167 176.5,177.833 176.5,172.5C 176.738,167.02 178.904,162.353 183,158.5C 184.62,155.107 186.12,151.774 187.5,148.5 Z"/></g>
<g><path style="opacity:0.117" fill="#140b10" d="M 276.5,191.5 C 281.214,191.173 285.88,191.507 290.5,192.5C 290.291,193.086 289.957,193.586 289.5,194C 285.167,194.667 280.833,194.667 276.5,194C 275.402,193.23 275.402,192.397 276.5,191.5 Z"/></g>
<g><path style="opacity:0.31" fill="#190c0f" d="M 9.5,191.5 C 13.5138,191.334 17.5138,191.501 21.5,192C 21.9574,192.414 22.2907,192.914 22.5,193.5C 17.8687,194.662 13.202,194.828 8.5,194C 8.16667,193.667 7.83333,193.333 7.5,193C 8.4158,192.722 9.08247,192.222 9.5,191.5 Z"/></g>
<g><path style="opacity:1" fill="#731c0d" d="M 281.5,215.5 C 280.833,215.833 280.167,216.167 279.5,216.5C 279.5,215.167 279.5,213.833 279.5,212.5C 278.5,212.5 277.5,212.5 276.5,212.5C 269.653,211.01 264.32,213.01 260.5,218.5C 261.051,215.733 262.384,213.4 264.5,211.5C 270.798,210.504 277.132,210.17 283.5,210.5C 283.598,212.553 282.931,214.22 281.5,215.5 Z"/></g>
<g><path style="opacity:1" fill="#5d140b" d="M 34.5,214.5 C 33.3734,213.878 32.3734,213.045 31.5,212C 26.798,211.172 22.1313,211.338 17.5,212.5C 18.3094,214.071 18.6427,215.738 18.5,217.5C 19.5,217.5 20.5,217.5 21.5,217.5C 22.031,220.237 22.8644,222.904 24,225.5C 26.0569,226.978 27.3902,228.978 28,231.5C 29.2051,232.071 30.3717,232.738 31.5,233.5C 34.9903,238.233 37.9903,243.233 40.5,248.5C 30.554,237.964 22.054,226.298 15,213.5C 14.5172,212.552 14.3505,211.552 14.5,210.5C 19.7175,210.758 24.8841,210.425 30,209.5C 32.401,210.399 33.901,212.066 34.5,214.5 Z"/></g>
<g><path style="opacity:0.694" fill="#4a0c09" d="M 281.5,215.5 C 277.98,223.882 272.98,231.215 266.5,237.5C 271.103,230.688 275.436,223.688 279.5,216.5C 280.167,216.167 280.833,215.833 281.5,215.5 Z"/></g>
<g><path style="opacity:1" fill="#981503" d="M 34.5,214.5 C 36.3264,216.147 37.6597,218.147 38.5,220.5C 35.5282,218.461 32.8615,215.961 30.5,213C 27.5,212.333 24.5,212.333 21.5,213C 25.6995,218.92 29.5328,225.086 33,231.5C 41.9146,241.748 51.4146,251.248 61.5,260C 70.179,266.211 79.179,271.711 88.5,276.5C 87.7261,277.147 86.7261,277.48 85.5,277.5C 83.223,276.522 80.8897,275.855 78.5,275.5C 75.3398,273.581 72.0065,272.248 68.5,271.5C 66.115,268.13 63.4484,264.963 60.5,262C 58.8333,261.667 57.1667,261.333 55.5,261C 53.8863,258.873 51.8863,257.373 49.5,256.5C 47.1002,253.097 44.1002,250.43 40.5,248.5C 37.9903,243.233 34.9903,238.233 31.5,233.5C 30.3717,232.738 29.2051,232.071 28,231.5C 27.3902,228.978 26.0569,226.978 24,225.5C 22.8644,222.904 22.031,220.237 21.5,217.5C 20.5,217.5 19.5,217.5 18.5,217.5C 18.6427,215.738 18.3094,214.071 17.5,212.5C 22.1313,211.338 26.798,211.172 31.5,212C 32.3734,213.045 33.3734,213.878 34.5,214.5 Z"/></g>
<g><path style="opacity:0.812" fill="#440c08" d="M 40.5,248.5 C 44.1002,250.43 47.1002,253.097 49.5,256.5C 45.8998,254.57 42.8998,251.903 40.5,248.5 Z"/></g>
<g><path style="opacity:0.031" fill="#2c0802" d="M 259.5,246.5 C 257.833,250.167 255.167,252.833 251.5,254.5C 252.833,252.833 254.167,251.167 255.5,249.5C 256.833,248.5 258.167,247.5 259.5,246.5 Z"/></g>
<g><path style="opacity:1" fill="#69140a" d="M 255.5,249.5 C 254.167,251.167 252.833,252.833 251.5,254.5C 247.766,258.548 243.766,262.381 239.5,266C 237.922,267.094 236.255,267.928 234.5,268.5C 235.897,266.621 237.563,264.954 239.5,263.5C 240.149,261.376 240.983,259.376 242,257.5C 244.946,260.543 246.112,259.876 245.5,255.5C 246.5,255.5 247.5,255.5 248.5,255.5C 248.5,254.167 248.5,252.833 248.5,251.5C 250.929,251.116 253.263,250.449 255.5,249.5 Z"/></g>
<g><path style="opacity:1" fill="#681308" d="M 49.5,256.5 C 51.8863,257.373 53.8863,258.873 55.5,261C 57.1667,261.333 58.8333,261.667 60.5,262C 63.4484,264.963 66.115,268.13 68.5,271.5C 61.299,267.636 54.9657,262.636 49.5,256.5 Z"/></g>
<g><path style="opacity:1" fill="#54110a" d="M 68.5,271.5 C 72.0065,272.248 75.3398,273.581 78.5,275.5C 79.9002,276.1 80.9002,277.1 81.5,278.5C 76.4248,277.398 72.0914,275.064 68.5,271.5 Z"/></g>
<g><path style="opacity:1" fill="#5f130a" d="M 234.5,268.5 C 230.701,271.952 226.368,274.618 221.5,276.5C 223.248,275.211 223.581,273.711 222.5,272C 226.751,271.556 230.751,270.389 234.5,268.5 Z"/></g>
<g><path style="opacity:1" fill="#bb2903" d="M 38.5,220.5 C 39.9063,220.973 40.573,221.973 40.5,223.5C 41.7336,229.067 45.0669,232.734 50.5,234.5C 49.976,238.31 51.6426,240.31 55.5,240.5C 56.1669,244.541 58.5003,246.541 62.5,246.5C 62.5394,247.583 62.8728,248.583 63.5,249.5C 66.0269,251.185 68.5269,252.851 71,254.5C 71.4828,255.448 71.6495,256.448 71.5,257.5C 74.5394,258.01 77.5394,258.677 80.5,259.5C 82.4704,262.827 85.4704,264.661 89.5,265C 93.511,268.286 98.1777,270.119 103.5,270.5C 106.152,270.41 108.485,271.076 110.5,272.5C 111.347,273.966 112.68,274.8 114.5,275C 119.118,275.994 123.785,276.494 128.5,276.5C 131.279,276.279 133.946,276.612 136.5,277.5C 146.992,278.659 157.659,278.825 168.5,278C 173.403,277.242 178.07,276.075 182.5,274.5C 188.311,273.733 193.978,272.233 199.5,270C 201.584,269.303 203.251,268.136 204.5,266.5C 208.085,266.708 210.751,265.375 212.5,262.5C 217.241,262.213 221.075,260.213 224,256.5C 226.94,255.577 229.773,254.577 232.5,253.5C 232.351,252.448 232.517,251.448 233,250.5C 235.04,248.63 236.873,246.63 238.5,244.5C 238.5,243.833 238.833,243.5 239.5,243.5C 245.227,238.776 250.227,233.442 254.5,227.5C 257.758,225.31 259.758,222.31 260.5,218.5C 264.32,213.01 269.653,211.01 276.5,212.5C 275.969,214.544 274.802,216.211 273,217.5C 272.229,220.19 271.396,222.856 270.5,225.5C 261.989,235.176 253.323,244.676 244.5,254C 206.897,284.817 163.897,295.484 115.5,286C 106.224,283.598 97.2236,280.432 88.5,276.5C 79.179,271.711 70.179,266.211 61.5,260C 51.4146,251.248 41.9146,241.748 33,231.5C 29.5328,225.086 25.6995,218.92 21.5,213C 24.5,212.333 27.5,212.333 30.5,213C 32.8615,215.961 35.5282,218.461 38.5,220.5 Z M 175.5,248.5 C 159.567,251.971 143.567,252.305 127.5,249.5C 121.317,247.431 115.317,244.765 109.5,241.5C 136.827,240.333 164.161,240.167 191.5,241C 186.227,243.804 180.893,246.304 175.5,248.5 Z"/></g>
<g><path style="opacity:0.898" fill="#59180f" d="M 182.5,274.5 C 178.07,276.075 173.403,277.242 168.5,278C 157.659,278.825 146.992,278.659 136.5,277.5C 151.947,278.027 167.28,277.027 182.5,274.5 Z"/></g>
<g><path style="opacity:0.729" fill="#52140e" d="M 110.5,272.5 C 116.587,273.982 122.587,275.315 128.5,276.5C 123.785,276.494 119.118,275.994 114.5,275C 112.68,274.8 111.347,273.966 110.5,272.5 Z"/></g>
<g><path style="opacity:1" fill="#692111" d="M 204.5,266.5 C 203.251,268.136 201.584,269.303 199.5,270C 193.978,272.233 188.311,273.733 182.5,274.5C 189.824,272.056 197.157,269.39 204.5,266.5 Z"/></g>
<g><path style="opacity:1" fill="#731e0e" d="M 80.5,259.5 C 88.3576,262.93 96.0242,266.597 103.5,270.5C 98.1777,270.119 93.511,268.286 89.5,265C 85.4704,264.661 82.4704,262.827 80.5,259.5 Z"/></g>
<g><path style="opacity:1" fill="#771f0e" d="M 212.5,262.5 C 210.751,265.375 208.085,266.708 204.5,266.5C 206.849,264.659 209.515,263.326 212.5,262.5 Z"/></g>
<g><path style="opacity:1" fill="#7a200f" d="M 62.5,246.5 C 68.5235,250.865 74.5235,255.199 80.5,259.5C 77.5394,258.677 74.5394,258.01 71.5,257.5C 71.6495,256.448 71.4828,255.448 71,254.5C 68.5269,252.851 66.0269,251.185 63.5,249.5C 62.8728,248.583 62.5394,247.583 62.5,246.5 Z"/></g>
<g><path style="opacity:1" fill="#77210c" d="M 238.5,244.5 C 236.873,246.63 235.04,248.63 233,250.5C 232.517,251.448 232.351,252.448 232.5,253.5C 229.773,254.577 226.94,255.577 224,256.5C 221.075,260.213 217.241,262.213 212.5,262.5C 221.437,256.897 230.104,250.897 238.5,244.5 Z"/></g>
<g><path style="opacity:1" fill="#782111" d="M 55.5,240.5 C 58.4323,241.8 60.7656,243.8 62.5,246.5C 58.5003,246.541 56.1669,244.541 55.5,240.5 Z"/></g>
<g><path style="opacity:1" fill="#872314" d="M 50.5,234.5 C 52.6326,236.091 54.2993,238.091 55.5,240.5C 51.6426,240.31 49.976,238.31 50.5,234.5 Z"/></g>
<g><path style="opacity:0.616" fill="#461005" d="M 254.5,227.5 C 250.227,233.442 245.227,238.776 239.5,243.5C 243.773,237.558 248.773,232.224 254.5,227.5 Z"/></g>
<g><path style="opacity:0.989" fill="#181f30" d="M 69.5,233.5 C 70.1667,233.5 70.8333,233.5 71.5,233.5C 112.833,233.5 154.167,233.5 195.5,233.5C 206.5,233.5 217.5,233.5 228.5,233.5C 212.798,250.188 193.465,260.355 170.5,264C 136.402,269.391 105.402,262.058 77.5,242C 74.6286,239.297 71.9619,236.464 69.5,233.5 Z M 175.5,248.5 C 159.567,251.971 143.567,252.305 127.5,249.5C 121.317,247.431 115.317,244.765 109.5,241.5C 136.827,240.333 164.161,240.167 191.5,241C 186.227,243.804 180.893,246.304 175.5,248.5 Z"/></g>
<g><path style="opacity:0.29" fill="#030917" d="M 175.5,248.5 C 180.893,246.304 186.227,243.804 191.5,241C 164.161,240.167 136.827,240.333 109.5,241.5C 115.317,244.765 121.317,247.431 127.5,249.5C 118.318,247.742 109.652,244.576 101.5,240C 133.167,239.333 164.833,239.333 196.5,240C 189.905,243.968 182.905,246.802 175.5,248.5 Z"/></g>
<g><path style="opacity:1" fill="#6d2010" d="M 40.5,223.5 C 44.1742,226.842 47.5075,230.508 50.5,234.5C 45.0669,232.734 41.7336,229.067 40.5,223.5 Z"/></g>
<g><path style="opacity:0.784" fill="#59160b" d="M 260.5,218.5 C 259.758,222.31 257.758,225.31 254.5,227.5C 256.255,224.32 258.255,221.32 260.5,218.5 Z"/></g>
<g><path style="opacity:0.987" fill="#444b5e" d="M 228.5,233.5 C 217.5,233.5 206.5,233.5 195.5,233.5C 197.556,232.784 199.723,232.117 202,231.5C 206.947,231.954 212.28,232.288 218,232.5C 220.643,231.679 222.976,230.346 225,228.5C 225.333,228.833 225.667,229.167 226,229.5C 226.483,228.552 226.649,227.552 226.5,226.5C 228.527,226.662 230.527,226.495 232.5,226C 232.167,225.667 231.833,225.333 231.5,225C 204.716,224.336 179.383,222.836 155.5,220.5C 148.5,220.667 141.5,220.833 134.5,221C 140.5,221.333 146.5,221.667 152.5,222C 140.163,222.472 127.83,222.306 115.5,221.5C 110.746,221.534 106.246,222.201 102,223.5C 101.333,220.833 100.667,220.833 100,223.5C 99.3333,220.833 98.6667,220.833 98,223.5C 97.3333,220.833 96.6667,220.833 96,223.5C 95.3333,220.833 94.6667,220.833 94,223.5C 93.3333,220.833 92.6667,220.833 92,223.5C 91.6667,222.833 91.3333,222.167 91,221.5C 90.5,222.667 89.6667,223.5 88.5,224C 85.2942,224.296 82.1275,224.796 79,225.5C 78.228,225.355 77.5613,225.022 77,224.5C 75.103,226.016 72.9363,226.683 70.5,226.5C 70.4809,228.06 70.1476,229.56 69.5,231C 70.0556,232.011 70.7222,232.844 71.5,233.5C 70.8333,233.5 70.1667,233.5 69.5,233.5C 64.725,229.556 60.3916,225.056 56.5,220C 57.263,219.056 58.263,218.556 59.5,218.5C 119.675,218.347 180.009,218.513 240.5,219C 241.451,219.718 241.617,220.551 241,221.5C 237.383,225.239 233.883,229.072 230.5,233C 229.906,233.464 229.239,233.631 228.5,233.5 Z"/></g>
<g><path style="opacity:1" fill="#535a73" d="M 195.5,233.5 C 154.167,233.5 112.833,233.5 71.5,233.5C 70.7222,232.844 70.0556,232.011 69.5,231C 70.1476,229.56 70.4809,228.06 70.5,226.5C 72.9363,226.683 75.103,226.016 77,224.5C 77.5613,225.022 78.228,225.355 79,225.5C 82.1275,224.796 85.2942,224.296 88.5,224C 89.6667,223.5 90.5,222.667 91,221.5C 91.3333,222.167 91.6667,222.833 92,223.5C 92.6667,220.833 93.3333,220.833 94,223.5C 94.6667,220.833 95.3333,220.833 96,223.5C 96.6667,220.833 97.3333,220.833 98,223.5C 98.6667,220.833 99.3333,220.833 100,223.5C 100.667,220.833 101.333,220.833 102,223.5C 106.246,222.201 110.746,221.534 115.5,221.5C 127.83,222.306 140.163,222.472 152.5,222C 146.5,221.667 140.5,221.333 134.5,221C 141.5,220.833 148.5,220.667 155.5,220.5C 179.383,222.836 204.716,224.336 231.5,225C 231.833,225.333 232.167,225.667 232.5,226C 230.527,226.495 228.527,226.662 226.5,226.5C 226.649,227.552 226.483,228.552 226,229.5C 225.667,229.167 225.333,228.833 225,228.5C 222.976,230.346 220.643,231.679 218,232.5C 212.28,232.288 206.947,231.954 202,231.5C 199.723,232.117 197.556,232.784 195.5,233.5 Z"/></g>
<g><path style="opacity:1" fill="#6d150a" d="M 221.5,276.5 C 210.664,283.079 198.997,287.746 186.5,290.5C 186.714,288.856 186.38,287.356 185.5,286C 192.87,285.835 200.204,284.668 207.5,282.5C 207.5,281.5 207.5,280.5 207.5,279.5C 212.067,278.144 216.734,277.144 221.5,276.5 Z"/></g>
<g><path style="opacity:1" fill="#901303" d="M 276.5,212.5 C 277.5,212.5 278.5,212.5 279.5,212.5C 279.5,213.833 279.5,215.167 279.5,216.5C 275.436,223.688 271.103,230.688 266.5,237.5C 264.542,240.792 262.209,243.792 259.5,246.5C 258.167,247.5 256.833,248.5 255.5,249.5C 253.263,250.449 250.929,251.116 248.5,251.5C 248.5,252.833 248.5,254.167 248.5,255.5C 247.5,255.5 246.5,255.5 245.5,255.5C 246.112,259.876 244.946,260.543 242,257.5C 240.983,259.376 240.149,261.376 239.5,263.5C 237.563,264.954 235.897,266.621 234.5,268.5C 230.751,270.389 226.751,271.556 222.5,272C 223.581,273.711 223.248,275.211 221.5,276.5C 216.734,277.144 212.067,278.144 207.5,279.5C 207.5,280.5 207.5,281.5 207.5,282.5C 200.204,284.668 192.87,285.835 185.5,286C 186.38,287.356 186.714,288.856 186.5,290.5C 177.213,290.799 168.213,292.132 159.5,294.5C 146.774,294.729 134.107,294.063 121.5,292.5C 121.167,292.5 120.833,292.5 120.5,292.5C 119.848,291.275 118.681,290.608 117,290.5C 114.502,290.083 112.002,289.749 109.5,289.5C 99.4641,287.477 90.1308,283.81 81.5,278.5C 80.9002,277.1 79.9002,276.1 78.5,275.5C 80.8897,275.855 83.223,276.522 85.5,277.5C 86.7261,277.48 87.7261,277.147 88.5,276.5C 97.2236,280.432 106.224,283.598 115.5,286C 163.897,295.484 206.897,284.817 244.5,254C 253.323,244.676 261.989,235.176 270.5,225.5C 271.396,222.856 272.229,220.19 273,217.5C 274.802,216.211 275.969,214.544 276.5,212.5 Z"/></g>
<g><path style="opacity:0.608" fill="#400d09" d="M 109.5,289.5 C 112.002,289.749 114.502,290.083 117,290.5C 118.681,290.608 119.848,291.275 120.5,292.5C 116.521,292.258 112.854,291.258 109.5,289.5 Z"/></g>
<g><path style="opacity:1" fill="#59140c" d="M 186.5,290.5 C 179.843,293.001 172.843,294.334 165.5,294.5C 163.5,294.5 161.5,294.5 159.5,294.5C 168.213,292.132 177.213,290.799 186.5,290.5 Z"/></g>
<g><path style="opacity:0.626" fill="#300a06" d="M 121.5,292.5 C 134.107,294.063 146.774,294.729 159.5,294.5C 161.5,294.5 163.5,294.5 165.5,294.5C 150.748,296.781 136.081,296.114 121.5,292.5 Z"/></g>
</svg>
