<?xml version="1.0" encoding="UTF-8"?>
<!DOCTYPE svg PUBLIC "-//W3C//DTD SVG 1.1//EN" "http://www.w3.org/Graphics/SVG/1.1/DTD/svg11.dtd">
<svg xmlns="http://www.w3.org/2000/svg" version="1.1" width="138px" height="147px" style="shape-rendering:geometricPrecision; text-rendering:geometricPrecision; image-rendering:optimizeQuality; fill-rule:evenodd; clip-rule:evenodd" xmlns:xlink="http://www.w3.org/1999/xlink">
<g><path style="opacity:0.99" fill="#31393e" d="M 43.5,0.5 C 43.5,0.166667 43.5,-0.166667 43.5,-0.5C 60.1667,-0.5 76.8333,-0.5 93.5,-0.5C 94.2905,0.40128 95.2905,1.06795 96.5,1.5C 98.2287,3.7267 100.562,4.7267 103.5,4.5C 103.5,5.5 103.5,6.5 103.5,7.5C 102.5,7.5 101.5,7.5 100.5,7.5C 99.0813,6.54885 97.4147,6.21552 95.5,6.5C 94.2921,5.76589 92.9587,5.43255 91.5,5.5C 88.5825,4.54616 85.5825,3.8795 82.5,3.5C 71.4524,3.48852 59.4524,3.82185 46.5,4.5C 45.8333,4.83333 45.1667,5.16667 44.5,5.5C 44.5743,3.5891 45.5743,2.42244 47.5,2C 62.5,1.66667 77.5,1.33333 92.5,1C 76.1701,0.500069 59.8367,0.333403 43.5,0.5 Z"/></g>
<g><path style="opacity:1" fill="#162129" d="M 91.5,5.5 C 88.8163,8.08974 86.3163,7.75641 84,4.5C 83.2588,5.64055 82.4255,5.64055 81.5,4.5C 75.551,5.29177 69.551,5.79177 63.5,6C 70.1667,6.33333 76.8333,6.66667 83.5,7C 72.5,7.66667 61.5,7.66667 50.5,7C 52.1667,6.66667 53.8333,6.33333 55.5,6C 52.3054,5.81948 49.3054,5.31948 46.5,4.5C 59.4524,3.82185 71.4524,3.48852 82.5,3.5C 85.5825,3.8795 88.5825,4.54616 91.5,5.5 Z"/></g>
<g><path style="opacity:0.839" fill="#5f6460" d="M 96.5,1.5 C 99.2406,1.70732 101.574,2.70732 103.5,4.5C 100.562,4.7267 98.2287,3.7267 96.5,1.5 Z"/></g>
<g><path style="opacity:1" fill="#16232d" d="M 46.5,4.5 C 49.3054,5.31948 52.3054,5.81948 55.5,6C 53.8333,6.33333 52.1667,6.66667 50.5,7C 61.5,7.66667 72.5,7.66667 83.5,7C 76.8333,6.66667 70.1667,6.33333 63.5,6C 69.551,5.79177 75.551,5.29177 81.5,4.5C 82.4255,5.64055 83.2588,5.64055 84,4.5C 86.3163,7.75641 88.8163,8.08974 91.5,5.5C 92.9587,5.43255 94.2921,5.76589 95.5,6.5C 97.7385,7.29888 99.7385,8.63222 101.5,10.5C 100.372,11.2621 99.2051,11.9288 98,12.5C 91.5591,11.6802 85.0591,11.0135 78.5,10.5C 78.2852,12.1788 78.9519,13.1788 80.5,13.5C 76.0226,14.6774 71.6892,14.0107 67.5,11.5C 66.5,12.1667 65.5,12.8333 64.5,13.5C 61.6996,12.2681 58.6996,11.6015 55.5,11.5C 44.8642,11.672 44.8642,12.172 55.5,13C 52.6287,13.1177 49.962,13.7844 47.5,15C 44.5184,15.498 41.5184,15.6646 38.5,15.5C 37.8423,16.3984 37.1757,17.3984 36.5,18.5C 32.5,19.1667 30.1667,21.5 29.5,25.5C 27.7086,26.1698 26.0419,26.8365 24.5,27.5C 23.603,26.4019 22.7697,26.4019 22,27.5C 21.0565,26.737 20.5565,25.737 20.5,24.5C 24.0409,21.621 26.3743,17.9543 27.5,13.5C 28.5,13.1667 29.1667,12.5 29.5,11.5C 31.4872,10.6568 33.6539,9.99015 36,9.5C 36.772,9.6448 37.4387,9.97814 38,10.5C 40.9263,9.73142 43.0929,8.06475 44.5,5.5C 45.1667,5.16667 45.8333,4.83333 46.5,4.5 Z"/></g>
<g><path style="opacity:1" fill="#182022" d="M 43.5,0.5 C 59.8367,0.333403 76.1701,0.500069 92.5,1C 77.5,1.33333 62.5,1.66667 47.5,2C 45.5743,2.42244 44.5743,3.5891 44.5,5.5C 43.0929,8.06475 40.9263,9.73142 38,10.5C 37.4387,9.97814 36.772,9.6448 36,9.5C 33.6539,9.99015 31.4872,10.6568 29.5,11.5C 28.0937,11.0269 27.427,10.0269 27.5,8.5C 31.9676,4.26611 37.301,1.59944 43.5,0.5 Z"/></g>
<g><path style="opacity:1" fill="#17222b" d="M 95.5,6.5 C 97.4147,6.21552 99.0813,6.54885 100.5,7.5C 103.349,9.64463 106.349,11.6446 109.5,13.5C 108.624,14.2508 107.624,14.7508 106.5,15C 108.658,16.3117 108.991,17.9783 107.5,20C 105.899,20.2734 104.399,20.7734 103,21.5C 102.586,21.0426 102.086,20.7093 101.5,20.5C 101.167,21.1667 100.833,21.8333 100.5,22.5C 99.5832,21.8728 98.5832,21.5394 97.5,21.5C 96.8333,21.1667 96.1667,20.8333 95.5,20.5C 93.4214,20.0293 91.4214,19.3627 89.5,18.5C 88.391,18.4431 87.391,18.1098 86.5,17.5C 87.6085,16.71 88.9419,16.21 90.5,16C 87.4239,14.145 84.0906,13.3117 80.5,13.5C 78.9519,13.1788 78.2852,12.1788 78.5,10.5C 85.0591,11.0135 91.5591,11.6802 98,12.5C 99.2051,11.9288 100.372,11.2621 101.5,10.5C 99.7385,8.63222 97.7385,7.29888 95.5,6.5 Z"/></g>
<g><path style="opacity:1" fill="#19222a" d="M 80.5,13.5 C 84.0906,13.3117 87.4239,14.145 90.5,16C 88.9419,16.21 87.6085,16.71 86.5,17.5C 86.1667,17.5 85.8333,17.5 85.5,17.5C 79.7047,16.1704 73.538,15.5038 67,15.5C 57.7438,15.3299 48.5771,15.9966 39.5,17.5C 38.7025,17.0431 38.3691,16.3764 38.5,15.5C 41.5184,15.6646 44.5184,15.498 47.5,15C 49.962,13.7844 52.6287,13.1177 55.5,13C 44.8642,12.172 44.8642,11.672 55.5,11.5C 58.6996,11.6015 61.6996,12.2681 64.5,13.5C 65.5,12.8333 66.5,12.1667 67.5,11.5C 71.6892,14.0107 76.0226,14.6774 80.5,13.5 Z"/></g>
<g><path style="opacity:0.235" fill="#959597" d="M 115.5,12.5 C 116.833,13.1667 117.833,14.1667 118.5,15.5C 116.5,15.5 115.5,14.5 115.5,12.5 Z"/></g>
<g><path style="opacity:1" fill="#202a2f" d="M 103.5,4.5 C 108.159,6.16404 112.159,8.8307 115.5,12.5C 115.5,14.5 116.5,15.5 118.5,15.5C 118.738,17.4044 119.738,18.7377 121.5,19.5C 124.605,22.2749 126.938,25.6082 128.5,29.5C 126.315,29.1119 124.482,28.1119 123,26.5C 121.838,27.1868 120.672,27.3534 119.5,27C 119.833,26.6667 120.167,26.3333 120.5,26C 117.018,25.1873 116.685,23.5206 119.5,21C 117.297,20.376 115.297,20.876 113.5,22.5C 112.833,22.1667 112.167,21.8333 111.5,21.5C 108.923,22.9431 106.59,24.6098 104.5,26.5C 102.224,24.6489 99.8907,22.9823 97.5,21.5C 98.5832,21.5394 99.5832,21.8728 100.5,22.5C 100.833,21.8333 101.167,21.1667 101.5,20.5C 102.086,20.7093 102.586,21.0426 103,21.5C 104.399,20.7734 105.899,20.2734 107.5,20C 108.991,17.9783 108.658,16.3117 106.5,15C 107.624,14.7508 108.624,14.2508 109.5,13.5C 106.349,11.6446 103.349,9.64463 100.5,7.5C 101.5,7.5 102.5,7.5 103.5,7.5C 103.5,6.5 103.5,5.5 103.5,4.5 Z"/></g>
<g><path style="opacity:0.224" fill="#96a49b" d="M 118.5,15.5 C 120.262,16.2623 121.262,17.5956 121.5,19.5C 119.738,18.7377 118.738,17.4044 118.5,15.5 Z"/></g>
<g><path style="opacity:1" fill="#eaefe7" d="M 85.5,17.5 C 85.8333,17.5 86.1667,17.5 86.5,17.5C 87.391,18.1098 88.391,18.4431 89.5,18.5C 86.997,19.3705 84.3303,20.0372 81.5,20.5C 70.1035,20.0907 58.7702,20.5907 47.5,22C 42.3545,25.4832 37.5211,29.3166 33,33.5C 32.2086,34.745 31.7086,36.0783 31.5,37.5C 25.3985,44.5892 22.3985,52.9225 22.5,62.5C 20.8333,62.5 19.1667,62.5 17.5,62.5C 17.5,60.1667 17.5,57.8333 17.5,55.5C 19.4255,37.4874 28.7588,24.9874 45.5,18C 58.8292,17.5001 72.1625,17.3334 85.5,17.5 Z"/></g>
<g><path style="opacity:1" fill="#8e989e" d="M 89.5,18.5 C 91.4214,19.3627 93.4214,20.0293 95.5,20.5C 94.2086,21.4728 94.2086,22.4728 95.5,23.5C 93.6652,24.4277 93.3318,25.5944 94.5,27C 91.3005,28.2745 87.9672,28.4412 84.5,27.5C 82.5,27.5 80.5,27.5 78.5,27.5C 71.8333,27.5 65.1667,27.5 58.5,27.5C 55.8127,27.3359 53.146,27.5026 50.5,28C 48.3474,28.0995 46.6808,28.9328 45.5,30.5C 42.4968,31.6662 39.8302,33.3328 37.5,35.5C 37.2865,33.8561 37.6198,32.3561 38.5,31C 45.3669,27.8767 52.3669,25.0434 59.5,22.5C 66.9891,21.8333 74.3225,21.1666 81.5,20.5C 84.3303,20.0372 86.997,19.3705 89.5,18.5 Z"/></g>
<g><path style="opacity:1" fill="#272f2f" d="M 27.5,8.5 C 27.427,10.0269 28.0937,11.0269 29.5,11.5C 29.1667,12.5 28.5,13.1667 27.5,13.5C 26.791,12.596 25.791,12.2627 24.5,12.5C 24.719,13.675 24.3857,14.675 23.5,15.5C 20.6115,17.5634 17.6115,19.3967 14.5,21C 19.559,21.1157 19.559,22.1157 14.5,24C 15.7596,25.8138 15.7596,27.6471 14.5,29.5C 12.9411,30.0736 11.4411,30.7402 10,31.5C 7.97525,37.7992 6.14191,44.1325 4.5,50.5C 4.48944,52.0174 3.82277,53.1841 2.5,54C 2.83333,54.3333 3.16667,54.6667 3.5,55C 2.71779,57.7405 2.21779,60.5738 2,63.5C 1.66667,60.1667 1.33333,56.8333 1,53.5C 0.500377,60.4921 0.333711,67.4921 0.5,74.5C 0.166667,74.5 -0.166667,74.5 -0.5,74.5C -0.5,67.1667 -0.5,59.8333 -0.5,52.5C 0.403972,51.791 0.737305,50.791 0.5,49.5C 2.2766,46.4954 3.2766,43.1621 3.5,39.5C 7.25387,28.9033 13.2539,19.7367 21.5,12C 23.4048,10.5787 25.4048,9.41202 27.5,8.5 Z"/></g>
<g><path style="opacity:1" fill="#99a4a1" d="M 81.5,20.5 C 74.3225,21.1666 66.9891,21.8333 59.5,22.5C 52.3669,25.0434 45.3669,27.8767 38.5,31C 37.6198,32.3561 37.2865,33.8561 37.5,35.5C 36.1667,37.1667 34.8333,38.8333 33.5,40.5C 32.8333,39.5 32.1667,38.5 31.5,37.5C 31.7086,36.0783 32.2086,34.745 33,33.5C 37.5211,29.3166 42.3545,25.4832 47.5,22C 58.7702,20.5907 70.1035,20.0907 81.5,20.5 Z"/></g>
<g><path style="opacity:1" fill="#152228" d="M 78.5,27.5 C 80.5,27.5 82.5,27.5 84.5,27.5C 87.6293,28.8988 90.6293,30.5655 93.5,32.5C 94.9331,34.5582 95.5997,36.8915 95.5,39.5C 91.5,38.8333 87.5,38.1667 83.5,37.5C 81.5,37.5 79.5,37.5 77.5,37.5C 67.4176,37.1926 57.4176,37.5259 47.5,38.5C 53.0738,36.5467 59.0738,35.88 65.5,36.5C 70.1667,36.5 74.8333,36.5 79.5,36.5C 79.2865,34.8561 79.6198,33.3561 80.5,32C 78.1547,30.2172 75.488,29.2172 72.5,29C 74.7078,28.8091 76.7078,28.3091 78.5,27.5 Z"/></g>
<g><path style="opacity:1" fill="#14222b" d="M 58.5,27.5 C 58.3893,28.1174 58.056,28.6174 57.5,29C 65.5,29.6667 65.5,30.3333 57.5,31C 61.5305,31.3257 65.5305,31.3257 69.5,31C 67.8981,32.6416 66.5648,34.4749 65.5,36.5C 59.0738,35.88 53.0738,36.5467 47.5,38.5C 47.5,38.8333 47.5,39.1667 47.5,39.5C 46.2243,36.9697 46.2243,34.3031 47.5,31.5C 47.0431,30.7025 46.3764,30.3691 45.5,30.5C 46.6808,28.9328 48.3474,28.0995 50.5,28C 53.146,27.5026 55.8127,27.3359 58.5,27.5 Z"/></g>
<g><path style="opacity:1" fill="#13202a" d="M 58.5,27.5 C 65.1667,27.5 71.8333,27.5 78.5,27.5C 76.7078,28.3091 74.7078,28.8091 72.5,29C 75.488,29.2172 78.1547,30.2172 80.5,32C 79.6198,33.3561 79.2865,34.8561 79.5,36.5C 74.8333,36.5 70.1667,36.5 65.5,36.5C 66.5648,34.4749 67.8981,32.6416 69.5,31C 65.5305,31.3257 61.5305,31.3257 57.5,31C 65.5,30.3333 65.5,29.6667 57.5,29C 58.056,28.6174 58.3893,28.1174 58.5,27.5 Z"/></g>
<g><path style="opacity:1" fill="#87949c" d="M 95.5,20.5 C 96.1667,20.8333 96.8333,21.1667 97.5,21.5C 99.8907,22.9823 102.224,24.6489 104.5,26.5C 106.167,28.5 107.833,30.5 109.5,32.5C 109.225,34.8418 108.392,34.8418 107,32.5C 106.833,32.8333 106.667,33.1667 106.5,33.5C 108.139,34.916 108.973,36.5826 109,38.5C 108,37.5 107,36.5 106,35.5C 105.195,37.9011 104.362,37.7344 103.5,35C 101.527,34.5045 99.5273,34.3379 97.5,34.5C 96.3951,33.3995 95.0618,32.7329 93.5,32.5C 90.6293,30.5655 87.6293,28.8988 84.5,27.5C 87.9672,28.4412 91.3005,28.2745 94.5,27C 93.3318,25.5944 93.6652,24.4277 95.5,23.5C 94.2086,22.4728 94.2086,21.4728 95.5,20.5 Z"/></g>
<g><path style="opacity:1" fill="#1a2324" d="M 38.5,15.5 C 38.3691,16.3764 38.7025,17.0431 39.5,17.5C 48.5771,15.9966 57.7438,15.3299 67,15.5C 73.538,15.5038 79.7047,16.1704 85.5,17.5C 72.1625,17.3334 58.8292,17.5001 45.5,18C 28.7588,24.9874 19.4255,37.4874 17.5,55.5C 16.5386,57.2646 16.2053,59.2646 16.5,61.5C 15.7777,62.5511 14.7777,63.2178 13.5,63.5C 15.1373,56.2712 16.4706,48.9378 17.5,41.5C 19.849,35.4491 22.1823,30.7824 24.5,27.5C 26.0419,26.8365 27.7086,26.1698 29.5,25.5C 30.1667,21.5 32.5,19.1667 36.5,18.5C 37.1757,17.3984 37.8423,16.3984 38.5,15.5 Z"/></g>
<g><path style="opacity:1" fill="#1a262e" d="M 128.5,29.5 C 132.196,35.248 134.53,41.5814 135.5,48.5C 134.732,47.7375 134.232,46.7375 134,45.5C 133.922,51.3993 134.422,57.2326 135.5,63C 135.167,63.1667 134.833,63.3333 134.5,63.5C 133.682,60.8929 133.182,58.2263 133,55.5C 132.667,57.1667 132.333,58.8333 132,60.5C 131.667,59.8333 131.333,59.1667 131,58.5C 130.753,55.5645 130.087,52.5645 129,49.5C 127.799,54.3193 126.299,58.9859 124.5,63.5C 123.683,65.9686 123.183,68.6353 123,71.5C 122.667,67.1667 122.333,62.8333 122,58.5C 120.827,65.4371 120.16,72.4371 120,79.5C 119.667,78.1667 119.333,76.8333 119,75.5C 118.79,77.0581 118.29,78.3915 117.5,79.5C 117.93,73.7613 118.596,68.0946 119.5,62.5C 119.753,53.916 117.919,45.916 114,38.5C 112.236,36.6107 110.736,34.6107 109.5,32.5C 107.833,30.5 106.167,28.5 104.5,26.5C 106.59,24.6098 108.923,22.9431 111.5,21.5C 112.167,21.8333 112.833,22.1667 113.5,22.5C 115.297,20.876 117.297,20.376 119.5,21C 116.685,23.5206 117.018,25.1873 120.5,26C 120.167,26.3333 119.833,26.6667 119.5,27C 120.672,27.3534 121.838,27.1868 123,26.5C 124.482,28.1119 126.315,29.1119 128.5,29.5 Z"/></g>
<g><path style="opacity:1" fill="#15222a" d="M 27.5,13.5 C 26.3743,17.9543 24.0409,21.621 20.5,24.5C 20.5565,25.737 21.0565,26.737 22,27.5C 22.7697,26.4019 23.603,26.4019 24.5,27.5C 22.1823,30.7824 19.849,35.4491 17.5,41.5C 16.4706,48.9378 15.1373,56.2712 13.5,63.5C 11.9147,62.5263 10.9147,61.0263 10.5,59C 11.6843,57.8545 11.6843,56.6879 10.5,55.5C 11.7874,53.3635 12.6207,51.0301 13,48.5C 13.6667,47.1667 14.3333,47.1667 15,48.5C 15.2685,43.3504 16.2685,38.3504 18,33.5C 19.6665,34.3402 19.8331,33.8402 18.5,32C 16.2158,31.2543 13.8824,31.5876 11.5,33C 11.9255,35.0174 11.9255,36.8507 11.5,38.5C 10.5,39.8333 9.5,41.1667 8.5,42.5C 8.10383,46.2634 7.10383,49.5968 5.5,52.5C 5.67158,51.5084 5.33825,50.8417 4.5,50.5C 6.14191,44.1325 7.97525,37.7992 10,31.5C 11.4411,30.7402 12.9411,30.0736 14.5,29.5C 15.7596,27.6471 15.7596,25.8138 14.5,24C 19.559,22.1157 19.559,21.1157 14.5,21C 17.6115,19.3967 20.6115,17.5634 23.5,15.5C 24.3857,14.675 24.719,13.675 24.5,12.5C 25.791,12.2627 26.791,12.596 27.5,13.5 Z"/></g>
<g><path style="opacity:1" fill="#14232f" d="M 10.5,55.5 C 9.78114,57.0913 8.78114,58.5913 7.5,60C 9.26034,60.9653 9.59368,62.132 8.5,63.5C 7.30363,62.4406 6.63696,61.1073 6.5,59.5C 7.33113,57.5269 7.49779,55.5269 7,53.5C 6.72158,54.4158 6.22158,55.0825 5.5,55.5C 5.5,54.5 5.5,53.5 5.5,52.5C 7.10383,49.5968 8.10383,46.2634 8.5,42.5C 9.5,41.1667 10.5,39.8333 11.5,38.5C 11.9255,36.8507 11.9255,35.0174 11.5,33C 13.8824,31.5876 16.2158,31.2543 18.5,32C 19.8331,33.8402 19.6665,34.3402 18,33.5C 16.2685,38.3504 15.2685,43.3504 15,48.5C 14.3333,47.1667 13.6667,47.1667 13,48.5C 12.6207,51.0301 11.7874,53.3635 10.5,55.5 Z"/></g>
<g><path style="opacity:1" fill="#17252e" d="M 93.5,32.5 C 95.0618,32.7329 96.3951,33.3995 97.5,34.5C 105.078,42.2247 108.745,51.558 108.5,62.5C 109.058,69.4823 107.391,75.8156 103.5,81.5C 102.076,84.0179 100.409,86.3512 98.5,88.5C 97.6522,87.375 96.6522,87.375 95.5,88.5C 95.4208,87.0695 95.7542,85.7362 96.5,84.5C 98.1667,83.5 99.5,82.1667 100.5,80.5C 97.6699,77.4849 98.1699,75.1516 102,73.5C 102.497,71.1902 102.663,68.8568 102.5,66.5C 104.859,69.2418 106.525,68.7418 107.5,65C 105.864,60.6884 105.031,56.1884 105,51.5C 104.333,50.1667 103.667,50.1667 103,51.5C 102.667,49.1667 102.333,46.8333 102,44.5C 101.026,46.8776 100.359,46.5443 100,43.5C 98.6927,41.8082 97.1927,40.4749 95.5,39.5C 95.5997,36.8915 94.9331,34.5582 93.5,32.5 Z"/></g>
<g><path style="opacity:1" fill="#18242f" d="M 45.5,30.5 C 46.3764,30.3691 47.0431,30.7025 47.5,31.5C 46.2243,34.3031 46.2243,36.9697 47.5,39.5C 46.2511,41.1361 44.5844,42.3028 42.5,43C 41.9473,44.8778 40.9473,46.3778 39.5,47.5C 38.5,47.5 37.5,47.5 36.5,47.5C 36.6495,46.448 36.4828,45.448 36,44.5C 35.6667,44.8333 35.3333,45.1667 35,45.5C 34.9252,43.065 34.0919,42.3984 32.5,43.5C 32.5569,42.391 32.8902,41.391 33.5,40.5C 34.8333,38.8333 36.1667,37.1667 37.5,35.5C 39.8302,33.3328 42.4968,31.6662 45.5,30.5 Z"/></g>
<g><path style="opacity:1" fill="#a86d3f" d="M 52.5,39.5 C 62.8387,39.3335 73.172,39.5002 83.5,40C 84.4158,40.2784 85.0825,40.7784 85.5,41.5C 84.1667,41.5 82.8333,41.5 81.5,41.5C 70.2481,40.0341 58.9148,40.3674 47.5,42.5C 48.6594,40.7497 50.326,39.7497 52.5,39.5 Z"/></g>
<g><path style="opacity:1" fill="#86949a" d="M 109.5,32.5 C 110.736,34.6107 112.236,36.6107 114,38.5C 117.919,45.916 119.753,53.916 119.5,62.5C 115.833,62.5 112.167,62.5 108.5,62.5C 108.745,51.558 105.078,42.2247 97.5,34.5C 99.5273,34.3379 101.527,34.5045 103.5,35C 104.362,37.7344 105.195,37.9011 106,35.5C 107,36.5 108,37.5 109,38.5C 108.973,36.5826 108.139,34.916 106.5,33.5C 106.667,33.1667 106.833,32.8333 107,32.5C 108.392,34.8418 109.225,34.8418 109.5,32.5 Z"/></g>
<g><path style="opacity:1" fill="#351b0c" d="M 77.5,37.5 C 79.5,37.5 81.5,37.5 83.5,37.5C 85.4927,39.1632 87.8261,40.3299 90.5,41C 92.4521,43.0739 94.2854,45.2406 96,47.5C 97.6327,53.3951 98.466,59.3951 98.5,65.5C 98.2001,71.0363 96.5335,76.0363 93.5,80.5C 91.2396,81.1389 89.2396,82.3055 87.5,84C 85.8659,84.4935 84.1992,84.6602 82.5,84.5C 84.42,83.9348 86.0867,82.9348 87.5,81.5C 91.9899,78.4614 94.6566,74.1281 95.5,68.5C 95.5,68.1667 95.5,67.8333 95.5,67.5C 96.741,61.9541 96.5744,56.2874 95,50.5C 94.6232,49.0577 93.7899,48.0577 92.5,47.5C 91.7659,46.2921 91.4326,44.9587 91.5,43.5C 89.3146,43.2964 87.3146,42.6298 85.5,41.5C 85.0825,40.7784 84.4158,40.2784 83.5,40C 73.172,39.5002 62.8387,39.3335 52.5,39.5C 60.8333,38.8333 69.1667,38.1667 77.5,37.5 Z"/></g>
<g><path style="opacity:1" fill="#172127" d="M 83.5,37.5 C 87.5,38.1667 91.5,38.8333 95.5,39.5C 97.1927,40.4749 98.6927,41.8082 100,43.5C 100.359,46.5443 101.026,46.8776 102,44.5C 102.333,46.8333 102.667,49.1667 103,51.5C 103.667,50.1667 104.333,50.1667 105,51.5C 105.031,56.1884 105.864,60.6884 107.5,65C 106.525,68.7418 104.859,69.2418 102.5,66.5C 102.5,65.5 102.5,64.5 102.5,63.5C 100.801,63.5271 99.4674,64.1938 98.5,65.5C 98.466,59.3951 97.6327,53.3951 96,47.5C 94.2854,45.2406 92.4521,43.0739 90.5,41C 87.8261,40.3299 85.4927,39.1632 83.5,37.5 Z"/></g>
<g><path style="opacity:0.365" fill="#848881" d="M 3.5,39.5 C 3.2766,43.1621 2.2766,46.4954 0.5,49.5C 0.723405,45.8379 1.7234,42.5046 3.5,39.5 Z"/></g>
<g><path style="opacity:1" fill="#cc8245" d="M 81.5,41.5 C 75.5,41.5 69.5,41.5 63.5,41.5C 61.2646,41.2053 59.2646,41.5386 57.5,42.5C 53.3043,43.2319 49.3043,44.5652 45.5,46.5C 44.6906,48.0709 44.3573,49.7376 44.5,51.5C 43.8485,52.0906 43.1818,52.7573 42.5,53.5C 40.2155,62.8495 41.5488,71.5161 46.5,79.5C 45.5041,79.5858 44.6708,79.2524 44,78.5C 38.7949,68.4957 38.1283,58.1624 42,47.5C 43.0757,44.921 44.909,43.2543 47.5,42.5C 58.9148,40.3674 70.2481,40.0341 81.5,41.5 Z"/></g>
<g><path style="opacity:1" fill="#ea8129" d="M 63.5,41.5 C 71.1537,42.0884 78.8204,43.4217 86.5,45.5C 86.7093,46.086 87.0426,46.586 87.5,47C 85.8309,48.669 83.8309,49.5023 81.5,49.5C 80.8333,44.1667 80.1667,44.1667 79.5,49.5C 75.9441,49.2776 73.2774,50.6109 71.5,53.5C 69.0971,53.448 66.7638,53.7814 64.5,54.5C 64.1583,53.6618 63.4916,53.3284 62.5,53.5C 59.0381,52.5184 55.3714,52.185 51.5,52.5C 49.2554,51.1722 48.9221,49.3388 50.5,47C 55.0172,46.7368 59.3505,45.7368 63.5,44C 61.2922,43.8091 59.2922,43.3091 57.5,42.5C 59.2646,41.5386 61.2646,41.2053 63.5,41.5 Z"/></g>
<g><path style="opacity:1" fill="#95a19c" d="M 31.5,37.5 C 32.1667,38.5 32.8333,39.5 33.5,40.5C 32.8902,41.391 32.5569,42.391 32.5,43.5C 29.6231,48.3076 27.9564,53.641 27.5,59.5C 25.0882,59.6941 24.0882,61.0274 24.5,63.5C 21.8333,63.5 19.1667,63.5 16.5,63.5C 16.5,62.8333 16.5,62.1667 16.5,61.5C 16.2053,59.2646 16.5386,57.2646 17.5,55.5C 17.5,57.8333 17.5,60.1667 17.5,62.5C 19.1667,62.5 20.8333,62.5 22.5,62.5C 22.3985,52.9225 25.3985,44.5892 31.5,37.5 Z"/></g>
<g><path style="opacity:1" fill="#2b1a10" d="M 77.5,37.5 C 69.1667,38.1667 60.8333,38.8333 52.5,39.5C 50.326,39.7497 48.6594,40.7497 47.5,42.5C 44.909,43.2543 43.0757,44.921 42,47.5C 38.1283,58.1624 38.7949,68.4957 44,78.5C 44.6708,79.2524 45.5041,79.5858 46.5,79.5C 48.3658,82.2701 51.0324,83.7701 54.5,84C 63.8274,84.4998 73.1607,84.6665 82.5,84.5C 74.5671,86.4684 66.2337,87.135 57.5,86.5C 54.2139,85.7929 50.8806,85.4595 47.5,85.5C 47.1667,85.5 46.8333,85.5 46.5,85.5C 39.5908,79.3751 36.5908,71.5417 37.5,62C 37.484,57.05 38.1507,52.2167 39.5,47.5C 40.9473,46.3778 41.9473,44.8778 42.5,43C 44.5844,42.3028 46.2511,41.1361 47.5,39.5C 47.5,39.1667 47.5,38.8333 47.5,38.5C 57.4176,37.5259 67.4176,37.1926 77.5,37.5 Z"/></g>
<g><path style="opacity:1" fill="#df7f2e" d="M 63.5,41.5 C 69.5,41.5 75.5,41.5 81.5,41.5C 82.8333,41.5 84.1667,41.5 85.5,41.5C 87.0908,43.4366 88.7575,45.4366 90.5,47.5C 91.4287,48.6888 91.762,50.0222 91.5,51.5C 90.7784,51.0825 90.2784,50.4158 90,49.5C 88.7826,51.5074 87.9493,53.6741 87.5,56C 89.3096,60.2856 89.8096,64.7856 89,69.5C 87.8545,70.6843 86.6879,70.6843 85.5,69.5C 85.5,63.5 85.5,57.5 85.5,51.5C 82.2869,51.19 79.2869,51.5233 76.5,52.5C 75.5041,52.4142 74.6708,52.7476 74,53.5C 73.5006,59.1569 73.3339,64.8236 73.5,70.5C 73.5569,71.609 73.8902,72.609 74.5,73.5C 70.8815,74.2436 67.2148,74.577 63.5,74.5C 66.5401,73.1683 68.7068,70.835 70,67.5C 70.435,62.816 70.935,58.1493 71.5,53.5C 73.2774,50.6109 75.9441,49.2776 79.5,49.5C 80.1667,44.1667 80.8333,44.1667 81.5,49.5C 83.8309,49.5023 85.8309,48.669 87.5,47C 87.0426,46.586 86.7093,46.086 86.5,45.5C 78.8204,43.4217 71.1537,42.0884 63.5,41.5 Z"/></g>
<g><path style="opacity:1" fill="#e6852c" d="M 57.5,42.5 C 59.2922,43.3091 61.2922,43.8091 63.5,44C 59.3505,45.7368 55.0172,46.7368 50.5,47C 48.9221,49.3388 49.2554,51.1722 51.5,52.5C 51.5,58.5 51.5,64.5 51.5,70.5C 50.5041,70.5858 49.6708,70.2524 49,69.5C 47.9576,65.4519 47.6243,61.4519 48,57.5C 47.586,57.9574 47.086,58.2907 46.5,58.5C 45.8319,56.0312 45.1653,53.6979 44.5,51.5C 44.3573,49.7376 44.6906,48.0709 45.5,46.5C 49.3043,44.5652 53.3043,43.2319 57.5,42.5 Z"/></g>
<g><path style="opacity:1" fill="#15232d" d="M 10.5,55.5 C 11.6843,56.6879 11.6843,57.8545 10.5,59C 10.9147,61.0263 11.9147,62.5263 13.5,63.5C 14.7777,63.2178 15.7777,62.5511 16.5,61.5C 16.5,62.1667 16.5,62.8333 16.5,63.5C 16.5045,67.5341 16.8379,71.5341 17.5,75.5C 14.946,79.9472 14.946,84.4472 17.5,89C 16,90.8333 14.5,92.6667 13,94.5C 11.8915,90.7629 10.7248,87.0962 9.5,83.5C 10.0369,80.9647 11.0369,78.6314 12.5,76.5C 12.0465,73.778 11.3798,71.1114 10.5,68.5C 8.99639,72.3889 7.32972,76.0556 5.5,79.5C 4.17896,76.4018 3.51229,72.9018 3.5,69C 3.66667,65.5 3.83333,62 4,58.5C 4.23209,57.2625 4.73209,56.2625 5.5,55.5C 6.22158,55.0825 6.72158,54.4158 7,53.5C 7.49779,55.5269 7.33113,57.5269 6.5,59.5C 6.63696,61.1073 7.30363,62.4406 8.5,63.5C 9.59368,62.132 9.26034,60.9653 7.5,60C 8.78114,58.5913 9.78114,57.0913 10.5,55.5 Z"/></g>
<g><path style="opacity:1" fill="#ad6e3f" d="M 92.5,47.5 C 93.7899,48.0577 94.6232,49.0577 95,50.5C 96.5744,56.2874 96.741,61.9541 95.5,67.5C 95.1229,60.7435 94.1229,54.0768 92.5,47.5 Z"/></g>
<g><path style="opacity:1" fill="#5e2b0f" d="M 76.5,52.5 C 78.4147,52.2155 80.0813,52.5489 81.5,53.5C 79.2188,53.0773 77.5521,53.744 76.5,55.5C 74.9827,57.4621 74.3161,59.7954 74.5,62.5C 74.8333,64.1667 75.1667,65.8333 75.5,67.5C 76.9014,68.5207 78.2347,69.5207 79.5,70.5C 77.5,70.5 75.5,70.5 73.5,70.5C 73.3339,64.8236 73.5006,59.1569 74,53.5C 74.6708,52.7476 75.5041,52.4142 76.5,52.5 Z"/></g>
<g><path style="opacity:1" fill="#cf7b44" d="M 76.5,52.5 C 79.2869,51.5233 82.2869,51.19 85.5,51.5C 85.5,57.5 85.5,63.5 85.5,69.5C 84.1667,70.8333 82.8333,72.1667 81.5,73.5C 79.1667,73.5 76.8333,73.5 74.5,73.5C 73.8902,72.609 73.5569,71.609 73.5,70.5C 75.5,70.5 77.5,70.5 79.5,70.5C 79.8333,70.5 80.1667,70.5 80.5,70.5C 81.5,70.5 82.5,70.5 83.5,70.5C 83.8222,64.642 83.4889,58.9753 82.5,53.5C 82.1667,53.5 81.8333,53.5 81.5,53.5C 80.0813,52.5489 78.4147,52.2155 76.5,52.5 Z"/></g>
<g><path style="opacity:1" fill="#30404e" d="M 108.5,62.5 C 112.167,62.5 115.833,62.5 119.5,62.5C 118.596,68.0946 117.93,73.7613 117.5,79.5C 116.833,80.5 116.167,81.5 115.5,82.5C 115.5,81.5 115.5,80.5 115.5,79.5C 114.5,79.5 113.5,79.5 112.5,79.5C 112.301,77.0401 111.635,74.7067 110.5,72.5C 109.54,76.1386 109.54,79.8053 110.5,83.5C 108.408,83.4386 106.908,82.4386 106,80.5C 105.329,81.2524 104.496,81.5858 103.5,81.5C 107.391,75.8156 109.058,69.4823 108.5,62.5 Z"/></g>
<g><path style="opacity:1" fill="#61260e" d="M 82.5,53.5 C 83.4889,58.9753 83.8222,64.642 83.5,70.5C 82.5,70.5 81.5,70.5 80.5,70.5C 82.3787,65.1299 83.0454,59.4632 82.5,53.5 Z"/></g>
<g><path style="opacity:1" fill="#1f2c32" d="M 135.5,48.5 C 136.167,50.5 136.833,52.5 137.5,54.5C 137.5,59.5 137.5,64.5 137.5,69.5C 136.613,73.1001 135.613,76.7668 134.5,80.5C 133.175,81.9526 132.342,81.6192 132,79.5C 131.626,80.4162 131.126,81.2496 130.5,82C 131.428,82.3879 132.095,83.0546 132.5,84C 131.767,85.7659 131.433,87.5992 131.5,89.5C 131.672,90.4916 131.338,91.1583 130.5,91.5C 129.527,92.7914 128.527,92.7914 127.5,91.5C 126.818,92.2427 126.151,92.9094 125.5,93.5C 124.25,91.8459 122.916,90.1793 121.5,88.5C 122.655,88.4216 123.988,88.0883 125.5,87.5C 127.429,84.7803 128.263,81.7803 128,78.5C 127.667,78.8333 127.333,79.1667 127,79.5C 126.667,74.1667 126.333,68.8333 126,63.5C 125.31,64.7383 124.81,64.7383 124.5,63.5C 126.299,58.9859 127.799,54.3193 129,49.5C 130.087,52.5645 130.753,55.5645 131,58.5C 131.333,59.1667 131.667,59.8333 132,60.5C 132.333,58.8333 132.667,57.1667 133,55.5C 133.182,58.2263 133.682,60.8929 134.5,63.5C 134.833,63.3333 135.167,63.1667 135.5,63C 134.422,57.2326 133.922,51.3993 134,45.5C 134.232,46.7375 134.732,47.7375 135.5,48.5 Z"/></g>
<g><path style="opacity:1" fill="#ec7e2b" d="M 44.5,51.5 C 45.1653,53.6979 45.8319,56.0312 46.5,58.5C 47.086,58.2907 47.586,57.9574 48,57.5C 47.6243,61.4519 47.9576,65.4519 49,69.5C 49.6708,70.2524 50.5041,70.5858 51.5,70.5C 51.8333,70.5 52.1667,70.5 52.5,70.5C 56.2134,74.4733 60.0467,74.4733 64,70.5C 64.4994,65.1771 64.666,59.8437 64.5,54.5C 66.7638,53.7814 69.0971,53.448 71.5,53.5C 70.935,58.1493 70.435,62.816 70,67.5C 68.7068,70.835 66.5401,73.1683 63.5,74.5C 59.164,74.8369 55.4974,76.5035 52.5,79.5C 51.1667,79.5 49.8333,79.5 48.5,79.5C 47.8333,79.5 47.1667,79.5 46.5,79.5C 41.5488,71.5161 40.2155,62.8495 42.5,53.5C 43.1818,52.7573 43.8485,52.0906 44.5,51.5 Z"/></g>
<g><path style="opacity:1" fill="#162329" d="M 39.5,47.5 C 38.1507,52.2167 37.484,57.05 37.5,62C 36.5908,71.5417 39.5908,79.3751 46.5,85.5C 45.1266,85.6567 43.7932,85.49 42.5,85C 41.1258,82.4171 39.6258,79.9171 38,77.5C 36.8638,79.743 36.0305,82.0763 35.5,84.5C 33.6053,83.027 31.9387,81.3603 30.5,79.5C 30.5402,76.5755 29.7068,73.9088 28,71.5C 27.5012,67.5138 27.3345,63.5138 27.5,59.5C 27.9564,53.641 29.6231,48.3076 32.5,43.5C 34.0919,42.3984 34.9252,43.065 35,45.5C 35.3333,45.1667 35.6667,44.8333 36,44.5C 36.4828,45.448 36.6495,46.448 36.5,47.5C 37.5,47.5 38.5,47.5 39.5,47.5 Z"/></g>
<g><path style="opacity:1" fill="#301812" d="M 81.5,53.5 C 81.8333,53.5 82.1667,53.5 82.5,53.5C 83.0454,59.4632 82.3787,65.1299 80.5,70.5C 80.1667,70.5 79.8333,70.5 79.5,70.5C 78.2347,69.5207 76.9014,68.5207 75.5,67.5C 75.1667,65.8333 74.8333,64.1667 74.5,62.5C 74.3161,59.7954 74.9827,57.4621 76.5,55.5C 77.5521,53.744 79.2188,53.0773 81.5,53.5 Z"/></g>
<g><path style="opacity:1" fill="#1c2025" d="M 76.5,55.5 C 78.0098,54.2721 79.5098,54.2721 81,55.5C 81.6667,59.1667 81.6667,62.8333 81,66.5C 79.6667,67.8333 78.3333,67.8333 77,66.5C 76.5014,62.8484 76.3347,59.1817 76.5,55.5 Z"/></g>
<g><path style="opacity:1" fill="#602e12" d="M 51.5,52.5 C 55.3714,52.185 59.0381,52.5184 62.5,53.5C 62.666,58.8437 62.4994,64.1771 62,69.5C 58.9433,70.4505 55.7766,70.7839 52.5,70.5C 52.1667,70.5 51.8333,70.5 51.5,70.5C 51.5,64.5 51.5,58.5 51.5,52.5 Z"/></g>
<g><path style="opacity:1" fill="#201c23" d="M 59.5,67.5 C 59.5,67.8333 59.5,68.1667 59.5,68.5C 57.8561,68.7135 56.3561,68.3802 55,67.5C 54.5012,63.5138 54.3345,59.5138 54.5,55.5C 56.5,55.5 58.5,55.5 60.5,55.5C 60.3542,59.5191 60.0209,63.5191 59.5,67.5 Z"/></g>
<g><path style="opacity:1" fill="#2f170a" d="M 59.5,67.5 C 60.0209,63.5191 60.3542,59.5191 60.5,55.5C 58.5,55.5 56.5,55.5 54.5,55.5C 54.3345,59.5138 54.5012,63.5138 55,67.5C 56.3561,68.3802 57.8561,68.7135 59.5,68.5C 57.7354,69.4614 55.7354,69.7947 53.5,69.5C 53.5,64.1667 53.5,58.8333 53.5,53.5C 56.1667,53.5 58.8333,53.5 61.5,53.5C 61.6657,57.8461 61.499,62.1794 61,66.5C 60.6174,67.056 60.1174,67.3893 59.5,67.5 Z"/></g>
<g><path style="opacity:1" fill="#d17d41" d="M 62.5,53.5 C 63.4916,53.3284 64.1583,53.6618 64.5,54.5C 64.666,59.8437 64.4994,65.1771 64,70.5C 60.0467,74.4733 56.2134,74.4733 52.5,70.5C 55.7766,70.7839 58.9433,70.4505 62,69.5C 62.4994,64.1771 62.666,58.8437 62.5,53.5 Z"/></g>
<g><path style="opacity:1" fill="#15222c" d="M 124.5,63.5 C 124.81,64.7383 125.31,64.7383 126,63.5C 126.333,68.8333 126.667,74.1667 127,79.5C 127.333,79.1667 127.667,78.8333 128,78.5C 128.263,81.7803 127.429,84.7803 125.5,87.5C 123.988,88.0883 122.655,88.4216 121.5,88.5C 118.889,88.3544 116.889,87.1877 115.5,85C 117.155,83.5557 117.822,81.7224 117.5,79.5C 118.29,78.3915 118.79,77.0581 119,75.5C 119.333,76.8333 119.667,78.1667 120,79.5C 120.16,72.4371 120.827,65.4371 122,58.5C 122.333,62.8333 122.667,67.1667 123,71.5C 123.183,68.6353 123.683,65.9686 124.5,63.5 Z"/></g>
<g><path style="opacity:1" fill="#859399" d="M 27.5,59.5 C 27.3345,63.5138 27.5012,67.5138 28,71.5C 29.7068,73.9088 30.5402,76.5755 30.5,79.5C 28.5495,78.5015 26.5495,78.6682 24.5,80C 26.0356,81.5994 26.5356,83.4328 26,85.5C 25.3333,82.8333 24.6667,82.8333 24,85.5C 22.7485,83.9991 21.7485,82.3325 21,80.5C 20.6012,80.7284 20.4346,81.0618 20.5,81.5C 19.2028,79.6287 18.2028,77.6287 17.5,75.5C 16.8379,71.5341 16.5045,67.5341 16.5,63.5C 19.1667,63.5 21.8333,63.5 24.5,63.5C 24.0882,61.0274 25.0882,59.6941 27.5,59.5 Z"/></g>
<g><path style="opacity:1" fill="#db6b20" d="M 91.5,51.5 C 91.917,55.0678 92.5836,58.5678 93.5,62C 92.3008,65.6711 91.4675,69.5045 91,73.5C 87.4312,75.3289 84.2645,77.6622 81.5,80.5C 80.8333,80.3333 80.1667,80.1667 79.5,80C 81.229,78.2111 81.8957,76.0444 81.5,73.5C 82.8333,72.1667 84.1667,70.8333 85.5,69.5C 86.6879,70.6843 87.8545,70.6843 89,69.5C 89.8096,64.7856 89.3096,60.2856 87.5,56C 87.9493,53.6741 88.7826,51.5074 90,49.5C 90.2784,50.4158 90.7784,51.0825 91.5,51.5 Z"/></g>
<g><path style="opacity:1" fill="#c56023" d="M 85.5,41.5 C 87.3146,42.6298 89.3146,43.2964 91.5,43.5C 91.4326,44.9587 91.7659,46.2921 92.5,47.5C 94.1229,54.0768 95.1229,60.7435 95.5,67.5C 95.5,67.8333 95.5,68.1667 95.5,68.5C 93.2868,71.0821 91.6201,74.0821 90.5,77.5C 88.1352,78.0851 86.1352,79.2518 84.5,81C 74.8333,81.6667 65.1667,81.6667 55.5,81C 54.2625,80.7679 53.2625,80.2679 52.5,79.5C 55.4974,76.5035 59.164,74.8369 63.5,74.5C 67.2148,74.577 70.8815,74.2436 74.5,73.5C 76.8333,73.5 79.1667,73.5 81.5,73.5C 81.8957,76.0444 81.229,78.2111 79.5,80C 80.1667,80.1667 80.8333,80.3333 81.5,80.5C 84.2645,77.6622 87.4312,75.3289 91,73.5C 91.4675,69.5045 92.3008,65.6711 93.5,62C 92.5836,58.5678 91.917,55.0678 91.5,51.5C 91.762,50.0222 91.4287,48.6888 90.5,47.5C 88.7575,45.4366 87.0908,43.4366 85.5,41.5 Z"/></g>
<g><path style="opacity:0.133" fill="#868886" d="M 1.5,79.5 C 2.73838,81.2143 3.40505,83.2143 3.5,85.5C 1.92606,83.8984 1.25939,81.8984 1.5,79.5 Z"/></g>
<g><path style="opacity:1" fill="#af6032" d="M 95.5,68.5 C 94.6566,74.1281 91.9899,78.4614 87.5,81.5C 75.8793,82.6244 64.2126,82.791 52.5,82C 51.1416,81.0656 49.8083,80.2323 48.5,79.5C 49.8333,79.5 51.1667,79.5 52.5,79.5C 53.2625,80.2679 54.2625,80.7679 55.5,81C 65.1667,81.6667 74.8333,81.6667 84.5,81C 86.1352,79.2518 88.1352,78.0851 90.5,77.5C 91.6201,74.0821 93.2868,71.0821 95.5,68.5 Z"/></g>
<g><path style="opacity:1" fill="#2e3f47" d="M 115.5,82.5 C 113.293,86.943 110.626,91.1096 107.5,95C 102.845,95.4992 98.1785,95.6658 93.5,95.5C 92.6236,95.6309 91.9569,95.2975 91.5,94.5C 94.0912,92.7188 96.4245,90.7188 98.5,88.5C 100.409,86.3512 102.076,84.0179 103.5,81.5C 104.496,81.5858 105.329,81.2524 106,80.5C 106.908,82.4386 108.408,83.4386 110.5,83.5C 109.54,79.8053 109.54,76.1386 110.5,72.5C 111.635,74.7067 112.301,77.0401 112.5,79.5C 113.5,79.5 114.5,79.5 115.5,79.5C 115.5,80.5 115.5,81.5 115.5,82.5 Z"/></g>
<g><path style="opacity:0.89" fill="#4f5652" d="M 134.5,80.5 C 134.072,83.7846 133.072,86.7846 131.5,89.5C 131.433,87.5992 131.767,85.7659 132.5,84C 132.095,83.0546 131.428,82.3879 130.5,82C 131.126,81.2496 131.626,80.4162 132,79.5C 132.342,81.6192 133.175,81.9526 134.5,80.5 Z"/></g>
<g><path style="opacity:1" fill="#915a39" d="M 46.5,79.5 C 47.1667,79.5 47.8333,79.5 48.5,79.5C 49.8083,80.2323 51.1416,81.0656 52.5,82C 64.2126,82.791 75.8793,82.6244 87.5,81.5C 86.0867,82.9348 84.42,83.9348 82.5,84.5C 73.1607,84.6665 63.8274,84.4998 54.5,84C 51.0324,83.7701 48.3658,82.2701 46.5,79.5 Z"/></g>
<g><path style="opacity:1" fill="#16212d" d="M 102.5,66.5 C 102.663,68.8568 102.497,71.1902 102,73.5C 98.1699,75.1516 97.6699,77.4849 100.5,80.5C 99.5,82.1667 98.1667,83.5 96.5,84.5C 95.7542,85.7362 95.4208,87.0695 95.5,88.5C 93.2869,89.6053 91.1203,89.6053 89,88.5C 87.3721,89.8187 87.5387,91.1521 89.5,92.5C 89.1543,93.6956 88.6543,93.6956 88,92.5C 87.6667,94.1667 87.3333,95.8333 87,97.5C 85.6054,96.1854 84.6054,96.5188 84,98.5C 82.5806,97.5399 81.0806,96.7065 79.5,96C 81.9878,94.3148 81.6545,92.9814 78.5,92C 80.8098,91.5034 83.1432,91.3367 85.5,91.5C 84.1749,87.4411 85.8416,85.1077 90.5,84.5C 91.5244,83.1482 92.5244,81.8149 93.5,80.5C 96.5335,76.0363 98.2001,71.0363 98.5,65.5C 99.4674,64.1938 100.801,63.5271 102.5,63.5C 102.5,64.5 102.5,65.5 102.5,66.5 Z"/></g>
<g><path style="opacity:1" fill="#13222f" d="M 46.5,85.5 C 46.8333,85.5 47.1667,85.5 47.5,85.5C 49.7554,87.3803 52.4221,88.3803 55.5,88.5C 55.5,89.8333 55.5,91.1667 55.5,92.5C 51.3504,92.3988 47.517,91.3988 44,89.5C 43.5831,90.756 42.7498,91.4226 41.5,91.5C 39.4192,89.1534 37.4192,86.8201 35.5,84.5C 36.0305,82.0763 36.8638,79.743 38,77.5C 39.6258,79.9171 41.1258,82.4171 42.5,85C 43.7932,85.49 45.1266,85.6567 46.5,85.5 Z"/></g>
<g><path style="opacity:1" fill="#869499" d="M 30.5,79.5 C 31.9387,81.3603 33.6053,83.027 35.5,84.5C 37.4192,86.8201 39.4192,89.1534 41.5,91.5C 43.8485,93.341 46.5152,94.6743 49.5,95.5C 49.6107,96.1174 49.944,96.6174 50.5,97C 43.8417,97.4996 37.175,97.6663 30.5,97.5C 30.1667,96.5 29.5,95.8333 28.5,95.5C 26.8333,93.5 25.1667,91.5 23.5,89.5C 22.5014,86.8382 21.5014,84.1716 20.5,81.5C 20.4346,81.0618 20.6012,80.7284 21,80.5C 21.7485,82.3325 22.7485,83.9991 24,85.5C 24.6667,82.8333 25.3333,82.8333 26,85.5C 26.5356,83.4328 26.0356,81.5994 24.5,80C 26.5495,78.6682 28.5495,78.5015 30.5,79.5 Z"/></g>
<g><path style="opacity:1" fill="#16222b" d="M 47.5,85.5 C 50.8806,85.4595 54.2139,85.7929 57.5,86.5C 58.911,88.539 60.911,89.539 63.5,89.5C 63.3927,93.5351 63.7261,97.5351 64.5,101.5C 64.5643,103.557 63.8976,105.223 62.5,106.5C 62.7839,103.223 62.4505,100.057 61.5,97C 57.4517,96.6958 53.4517,96.1958 49.5,95.5C 46.5152,94.6743 43.8485,93.341 41.5,91.5C 42.7498,91.4226 43.5831,90.756 44,89.5C 47.517,91.3988 51.3504,92.3988 55.5,92.5C 55.5,91.1667 55.5,89.8333 55.5,88.5C 52.4221,88.3803 49.7554,87.3803 47.5,85.5 Z"/></g>
<g><path style="opacity:1" fill="#15232a" d="M 17.5,75.5 C 18.2028,77.6287 19.2028,79.6287 20.5,81.5C 21.5014,84.1716 22.5014,86.8382 23.5,89.5C 21.5,89.5 20.5,90.5 20.5,92.5C 19.596,93.209 19.2627,94.209 19.5,95.5C 16.7465,95.8874 14.2465,96.2208 12,96.5C 11.0853,95.6721 10.4186,94.6721 10,93.5C 9.0862,94.6537 8.25286,94.487 7.5,93C 8.45967,88.2907 7.793,83.7907 5.5,79.5C 7.32972,76.0556 8.99639,72.3889 10.5,68.5C 11.3798,71.1114 12.0465,73.778 12.5,76.5C 11.0369,78.6314 10.0369,80.9647 9.5,83.5C 10.7248,87.0962 11.8915,90.7629 13,94.5C 14.5,92.6667 16,90.8333 17.5,89C 14.946,84.4472 14.946,79.9472 17.5,75.5 Z"/></g>
<g><path style="opacity:1" fill="#15232a" d="M 93.5,80.5 C 92.5244,81.8149 91.5244,83.1482 90.5,84.5C 85.8416,85.1077 84.1749,87.4411 85.5,91.5C 83.1432,91.3367 80.8098,91.5034 78.5,92C 81.6545,92.9814 81.9878,94.3148 79.5,96C 81.0806,96.7065 82.5806,97.5399 84,98.5C 84.6054,96.5188 85.6054,96.1854 87,97.5C 87.3333,95.8333 87.6667,94.1667 88,92.5C 88.6543,93.6956 89.1543,93.6956 89.5,92.5C 87.5387,91.1521 87.3721,89.8187 89,88.5C 91.1203,89.6053 93.2869,89.6053 95.5,88.5C 96.6522,87.375 97.6522,87.375 98.5,88.5C 96.4245,90.7188 94.0912,92.7188 91.5,94.5C 91.9569,95.2975 92.6236,95.6309 93.5,95.5C 93.8333,96.1667 94.1667,96.8333 94.5,97.5C 91.9355,98.4925 89.2688,100.159 86.5,102.5C 87.7366,103.281 88.7366,104.281 89.5,105.5C 91.1353,106.681 92.802,106.681 94.5,105.5C 96.6255,106.829 98.6255,108.163 100.5,109.5C 96.4862,109.666 92.4862,109.499 88.5,109C 82.5128,105.429 77.0128,101.262 72,96.5C 71.5014,100.152 71.3347,103.818 71.5,107.5C 70.71,106.391 70.21,105.058 70,103.5C 69.3333,104.833 68.6667,104.833 68,103.5C 67.51,104.793 67.3433,106.127 67.5,107.5C 66.5,107.5 65.5,107.5 64.5,107.5C 64.7373,108.791 64.404,109.791 63.5,110.5C 61.5,109.5 59.5,108.5 57.5,107.5C 59.4147,107.784 61.0813,107.451 62.5,106.5C 63.8976,105.223 64.5643,103.557 64.5,101.5C 63.7261,97.5351 63.3927,93.5351 63.5,89.5C 60.911,89.539 58.911,88.539 57.5,86.5C 66.2337,87.135 74.5671,86.4684 82.5,84.5C 84.1992,84.6602 85.8659,84.4935 87.5,84C 89.2396,82.3055 91.2396,81.1389 93.5,80.5 Z"/></g>
<g><path style="opacity:1" fill="#14242b" d="M 117.5,79.5 C 117.822,81.7224 117.155,83.5557 115.5,85C 116.889,87.1877 118.889,88.3544 121.5,88.5C 122.916,90.1793 124.25,91.8459 125.5,93.5C 125.44,94.0431 125.107,94.3764 124.5,94.5C 123.281,93.7366 122.281,92.7366 121.5,91.5C 119.511,92.6319 117.844,93.9652 116.5,95.5C 114.977,97.8958 113.977,100.562 113.5,103.5C 112.5,103.5 111.5,103.5 110.5,103.5C 106.8,100.818 102.634,99.1514 98,98.5C 96.687,99.2871 95.5203,98.9538 94.5,97.5C 94.1667,96.8333 93.8333,96.1667 93.5,95.5C 98.1785,95.6658 102.845,95.4992 107.5,95C 110.626,91.1096 113.293,86.943 115.5,82.5C 116.167,81.5 116.833,80.5 117.5,79.5 Z"/></g>
<g><path style="opacity:1" fill="#2a3436" d="M 4.5,50.5 C 5.33825,50.8417 5.67158,51.5084 5.5,52.5C 5.5,53.5 5.5,54.5 5.5,55.5C 4.73209,56.2625 4.23209,57.2625 4,58.5C 3.83333,62 3.66667,65.5 3.5,69C 3.51229,72.9018 4.17896,76.4018 5.5,79.5C 7.793,83.7907 8.45967,88.2907 7.5,93C 8.25286,94.487 9.0862,94.6537 10,93.5C 10.4186,94.6721 11.0853,95.6721 12,96.5C 14.2465,96.2208 16.7465,95.8874 19.5,95.5C 19.2627,94.209 19.596,93.209 20.5,92.5C 21.7736,93.1894 21.7736,94.0228 20.5,95C 23.0001,96.1344 24.1668,97.9677 24,100.5C 21.6404,101.158 18.8071,101.158 15.5,100.5C 15.9309,104.337 16.5975,108.003 17.5,111.5C 17.3341,116.511 17.5007,121.511 18,126.5C 18.5,127 19,127.5 19.5,128C 18.0671,130.695 17.0671,133.529 16.5,136.5C 15.71,135.391 15.21,134.058 15,132.5C 14.6667,123.167 14.3333,113.833 14,104.5C 8.93374,99.0343 5.43374,92.701 3.5,85.5C 3.40505,83.2143 2.73838,81.2143 1.5,79.5C 0.548855,78.0813 0.215521,76.4147 0.5,74.5C 0.333711,67.4921 0.500377,60.4921 1,53.5C 1.33333,56.8333 1.66667,60.1667 2,63.5C 2.21779,60.5738 2.71779,57.7405 3.5,55C 3.16667,54.6667 2.83333,54.3333 2.5,54C 3.82277,53.1841 4.48944,52.0174 4.5,50.5 Z"/></g>
<g><path style="opacity:1" fill="#142229" d="M 23.5,89.5 C 25.1667,91.5 26.8333,93.5 28.5,95.5C 29.0283,96.8474 29.195,98.1807 29,99.5C 27.8867,97.6707 26.3867,96.8374 24.5,97C 27.3249,98.4737 27.6582,99.9737 25.5,101.5C 26.6293,103.529 26.1293,103.863 24,102.5C 22.513,103.253 22.3463,104.086 23.5,105C 22.7362,107.069 22.2362,109.236 22,111.5C 21.6667,108.833 21.3333,106.167 21,103.5C 19.1678,108.366 19.3344,113.2 21.5,118C 20.6521,120.77 20.3187,123.603 20.5,126.5C 19.6745,122.018 19.1745,117.351 19,112.5C 18.6174,111.944 18.1174,111.611 17.5,111.5C 16.5975,108.003 15.9309,104.337 15.5,100.5C 18.8071,101.158 21.6404,101.158 24,100.5C 24.1668,97.9677 23.0001,96.1344 20.5,95C 21.7736,94.0228 21.7736,93.1894 20.5,92.5C 20.5,90.5 21.5,89.5 23.5,89.5 Z"/></g>
<g><path style="opacity:1" fill="#475762" d="M 49.5,95.5 C 53.4517,96.1958 57.4517,96.6958 61.5,97C 62.4505,100.057 62.7839,103.223 62.5,106.5C 61.0813,107.451 59.4147,107.784 57.5,107.5C 54.1667,107.5 50.8333,107.5 47.5,107.5C 42.9386,106.731 38.6053,105.064 34.5,102.5C 33.1667,100.833 31.8333,99.1667 30.5,97.5C 37.175,97.6663 43.8417,97.4996 50.5,97C 49.944,96.6174 49.6107,96.1174 49.5,95.5 Z"/></g>
<g><path style="opacity:1" fill="#14222c" d="M 94.5,97.5 C 95.5203,98.9538 96.687,99.2871 98,98.5C 102.634,99.1514 106.8,100.818 110.5,103.5C 110.833,105.5 111.167,107.5 111.5,109.5C 110.662,109.842 110.328,110.508 110.5,111.5C 108.565,110.85 106.565,110.517 104.5,110.5C 103.432,109.566 102.099,109.232 100.5,109.5C 98.6255,108.163 96.6255,106.829 94.5,105.5C 92.802,106.681 91.1353,106.681 89.5,105.5C 88.7366,104.281 87.7366,103.281 86.5,102.5C 89.2688,100.159 91.9355,98.4925 94.5,97.5 Z"/></g>
<g><path style="opacity:1" fill="#17232a" d="M 34.5,102.5 C 38.6053,105.064 42.9386,106.731 47.5,107.5C 37.0807,109.4 37.0807,110.733 47.5,111.5C 47.33,112.822 47.6634,113.989 48.5,115C 42.8183,115.023 37.3183,115.856 32,117.5C 31.8091,115.292 31.3091,113.292 30.5,111.5C 31.2625,110.732 32.2625,110.232 33.5,110C 31.6041,108.192 31.1041,106.025 32,103.5C 32.6708,102.748 33.5041,102.414 34.5,102.5 Z"/></g>
<g><path style="opacity:1" fill="#13232b" d="M 116.5,95.5 C 118.842,95.5041 120.842,96.3375 122.5,98C 121.505,100.971 120.505,103.971 119.5,107C 120.506,108.338 121.506,109.671 122.5,111C 121.551,111.617 120.718,111.451 120,110.5C 119.125,112.513 117.791,112.513 116,110.5C 113.955,112.043 112.455,111.71 111.5,109.5C 111.167,107.5 110.833,105.5 110.5,103.5C 111.5,103.5 112.5,103.5 113.5,103.5C 113.977,100.562 114.977,97.8958 116.5,95.5 Z"/></g>
<g><path style="opacity:1" fill="#738389" d="M 100.5,109.5 C 102.099,109.232 103.432,109.566 104.5,110.5C 98.7945,110.171 93.1278,110.505 87.5,111.5C 85.9447,113.943 85.278,116.61 85.5,119.5C 81.195,119.524 78.5284,117.524 77.5,113.5C 76.0222,113.762 74.6888,113.429 73.5,112.5C 73.0576,111.261 72.3909,110.261 71.5,109.5C 71.5,108.833 71.5,108.167 71.5,107.5C 71.3347,103.818 71.5014,100.152 72,96.5C 77.0128,101.262 82.5128,105.429 88.5,109C 92.4862,109.499 96.4862,109.666 100.5,109.5 Z"/></g>
<g><path style="opacity:1" fill="#1b2225" d="M 47.5,107.5 C 50.8333,107.5 54.1667,107.5 57.5,107.5C 59.5,108.5 61.5,109.5 63.5,110.5C 63.7286,118.352 62.3952,119.019 59.5,112.5C 56.2545,110.843 55.2545,111.51 56.5,114.5C 56.2972,116.208 55.4638,117.541 54,118.5C 53.5045,120.473 53.3379,122.473 53.5,124.5C 52.8333,127.833 52.1667,131.167 51.5,134.5C 50.2921,135.234 48.9587,135.567 47.5,135.5C 43.6047,134.775 39.6047,134.109 35.5,133.5C 34.3608,130.996 33.6941,128.33 33.5,125.5C 34.1667,126.5 34.8333,127.5 35.5,128.5C 35.7986,130.455 36.7986,131.789 38.5,132.5C 42.2984,133.483 46.2984,133.817 50.5,133.5C 51.6787,128.172 51.6787,122.838 50.5,117.5C 43.7781,115.433 37.7781,116.433 32.5,120.5C 30.7868,121.635 30.1201,123.302 30.5,125.5C 29.5826,125.506 29.0826,124.506 29,122.5C 28.6667,123.167 28.3333,123.833 28,124.5C 28.096,122.619 27.9293,120.953 27.5,119.5C 27.3367,117.143 27.5034,114.81 28,112.5C 28.6708,111.748 29.5041,111.414 30.5,111.5C 31.3091,113.292 31.8091,115.292 32,117.5C 37.3183,115.856 42.8183,115.023 48.5,115C 47.6634,113.989 47.33,112.822 47.5,111.5C 37.0807,110.733 37.0807,109.4 47.5,107.5 Z"/></g>
<g><path style="opacity:1" fill="#16252d" d="M 28.5,95.5 C 29.5,95.8333 30.1667,96.5 30.5,97.5C 31.8333,99.1667 33.1667,100.833 34.5,102.5C 33.5041,102.414 32.6708,102.748 32,103.5C 31.1041,106.025 31.6041,108.192 33.5,110C 32.2625,110.232 31.2625,110.732 30.5,111.5C 29.5041,111.414 28.6708,111.748 28,112.5C 27.5034,114.81 27.3367,117.143 27.5,119.5C 26.4634,121.738 26.2967,124.071 27,126.5C 28.0113,127.337 29.1779,127.67 30.5,127.5C 30.719,128.675 30.3857,129.675 29.5,130.5C 27.5469,131.024 25.8802,132.024 24.5,133.5C 23.5,132.833 22.5,132.167 21.5,131.5C 20.8076,132.025 20.3076,132.692 20,133.5C 19.376,131.536 19.876,129.869 21.5,128.5C 21.1373,127.817 20.8039,127.15 20.5,126.5C 20.3187,123.603 20.6521,120.77 21.5,118C 19.3344,113.2 19.1678,108.366 21,103.5C 21.3333,106.167 21.6667,108.833 22,111.5C 22.2362,109.236 22.7362,107.069 23.5,105C 22.3463,104.086 22.513,103.253 24,102.5C 26.1293,103.863 26.6293,103.529 25.5,101.5C 27.6582,99.9737 27.3249,98.4737 24.5,97C 26.3867,96.8374 27.8867,97.6707 29,99.5C 29.195,98.1807 29.0283,96.8474 28.5,95.5 Z"/></g>
<g><path style="opacity:1" fill="#16222a" d="M 71.5,107.5 C 71.5,108.167 71.5,108.833 71.5,109.5C 70.2502,109.577 69.4169,110.244 69,111.5C 68.6667,110.5 68.3333,109.5 68,108.5C 67.5005,114.825 67.3338,121.158 67.5,127.5C 66.5,127.5 65.5,127.5 64.5,127.5C 64.6621,125.473 64.4955,123.473 64,121.5C 62.6054,120.185 61.6054,120.519 61,122.5C 60.6667,125.5 60.3333,128.5 60,131.5C 57.9455,132.495 56.7788,131.662 56.5,129C 57.4589,126.88 57.6256,124.713 57,122.5C 56.6667,123.167 56.3333,123.833 56,124.5C 55.2303,123.402 54.397,123.402 53.5,124.5C 53.3379,122.473 53.5045,120.473 54,118.5C 55.4638,117.541 56.2972,116.208 56.5,114.5C 55.2545,111.51 56.2545,110.843 59.5,112.5C 62.3952,119.019 63.7286,118.352 63.5,110.5C 64.404,109.791 64.7373,108.791 64.5,107.5C 65.5,107.5 66.5,107.5 67.5,107.5C 67.3433,106.127 67.51,104.793 68,103.5C 68.6667,104.833 69.3333,104.833 70,103.5C 70.21,105.058 70.71,106.391 71.5,107.5 Z"/></g>
<g><path style="opacity:1" fill="#16242e" d="M 71.5,109.5 C 71.5,116.833 71.5,124.167 71.5,131.5C 79.5,131.5 87.5,131.5 95.5,131.5C 99.5,131.5 103.5,131.5 107.5,131.5C 97.0906,133.577 86.4239,134.911 75.5,135.5C 71.56,133.764 69.8933,135.097 70.5,139.5C 68.8762,139.64 67.7096,138.973 67,137.5C 66.5,138.667 65.6667,139.5 64.5,140C 67.0356,140.186 69.369,140.686 71.5,141.5C 66.1667,141.5 60.8333,141.5 55.5,141.5C 53.3311,139.66 51.9977,137.326 51.5,134.5C 52.1667,131.167 52.8333,127.833 53.5,124.5C 54.397,123.402 55.2303,123.402 56,124.5C 56.3333,123.833 56.6667,123.167 57,122.5C 57.6256,124.713 57.4589,126.88 56.5,129C 56.7788,131.662 57.9455,132.495 60,131.5C 60.3333,128.5 60.6667,125.5 61,122.5C 61.6054,120.519 62.6054,120.185 64,121.5C 64.4955,123.473 64.6621,125.473 64.5,127.5C 65.5,127.5 66.5,127.5 67.5,127.5C 67.3338,121.158 67.5005,114.825 68,108.5C 68.3333,109.5 68.6667,110.5 69,111.5C 69.4169,110.244 70.2502,109.577 71.5,109.5 Z"/></g>
<g><path style="opacity:1" fill="#1e2a2f" d="M 125.5,93.5 C 126.151,92.9094 126.818,92.2427 127.5,91.5C 128.527,92.7914 129.527,92.7914 130.5,91.5C 128.896,95.2055 126.896,98.7055 124.5,102C 127.13,104.791 129.13,107.958 130.5,111.5C 130.41,114.152 131.076,116.485 132.5,118.5C 133.496,122.554 133.162,126.554 131.5,130.5C 130.167,131.167 128.833,131.833 127.5,132.5C 128.674,128.181 128.674,123.847 127.5,119.5C 124.552,119.777 121.719,119.444 119,118.5C 117.152,121.177 117.319,123.844 119.5,126.5C 118.675,127.386 117.675,127.719 116.5,127.5C 116.567,128.959 116.234,130.292 115.5,131.5C 113.504,133.333 111.171,133.833 108.5,133C 111.097,132.221 111.097,131.721 108.5,131.5C 108.833,130.833 109.167,130.167 109.5,129.5C 110.492,129.672 111.158,129.338 111.5,128.5C 116.777,122.693 116.444,117.026 110.5,111.5C 110.328,110.508 110.662,109.842 111.5,109.5C 112.455,111.71 113.955,112.043 116,110.5C 117.791,112.513 119.125,112.513 120,110.5C 120.718,111.451 121.551,111.617 122.5,111C 121.506,109.671 120.506,108.338 119.5,107C 120.505,103.971 121.505,100.971 122.5,98C 120.842,96.3375 118.842,95.5041 116.5,95.5C 117.844,93.9652 119.511,92.6319 121.5,91.5C 122.281,92.7366 123.281,93.7366 124.5,94.5C 125.107,94.3764 125.44,94.0431 125.5,93.5 Z"/></g>
<g><path style="opacity:0.325" fill="#6c736d" d="M 130.5,111.5 C 131.924,113.515 132.59,115.848 132.5,118.5C 131.076,116.485 130.41,114.152 130.5,111.5 Z"/></g>
<g><path style="opacity:1" fill="#412a18" d="M 38.5,132.5 C 48.5797,134.063 52.5797,129.73 50.5,119.5C 46.204,118.537 41.8706,118.371 37.5,119C 35.6602,121.826 34.9935,124.993 35.5,128.5C 34.8333,127.5 34.1667,126.5 33.5,125.5C 33.4208,124.07 33.7542,122.736 34.5,121.5C 34.0431,120.702 33.3764,120.369 32.5,120.5C 37.7781,116.433 43.7781,115.433 50.5,117.5C 51.6787,122.838 51.6787,128.172 50.5,133.5C 46.2984,133.817 42.2984,133.483 38.5,132.5 Z"/></g>
<g><path style="opacity:1" fill="#ecf0e3" d="M 104.5,110.5 C 100.009,114.491 95.6757,118.657 91.5,123C 89.8107,122.866 88.144,122.366 86.5,121.5C 86.1667,120.833 85.8333,120.167 85.5,119.5C 85.278,116.61 85.9447,113.943 87.5,111.5C 93.1278,110.505 98.7945,110.171 104.5,110.5 Z"/></g>
<g><path style="opacity:1" fill="#19272b" d="M 17.5,111.5 C 18.1174,111.611 18.6174,111.944 19,112.5C 19.1745,117.351 19.6745,122.018 20.5,126.5C 20.8039,127.15 21.1373,127.817 21.5,128.5C 19.876,129.869 19.376,131.536 20,133.5C 20.3076,132.692 20.8076,132.025 21.5,131.5C 22.5,132.167 23.5,132.833 24.5,133.5C 25.8802,132.024 27.5469,131.024 29.5,130.5C 30.3857,129.675 30.719,128.675 30.5,127.5C 29.1779,127.67 28.0113,127.337 27,126.5C 26.2967,124.071 26.4634,121.738 27.5,119.5C 27.9293,120.953 28.096,122.619 28,124.5C 28.3333,123.833 28.6667,123.167 29,122.5C 29.0826,124.506 29.5826,125.506 30.5,125.5C 31.5,125.5 32.5,125.5 33.5,125.5C 33.6941,128.33 34.3608,130.996 35.5,133.5C 31.9771,133.188 30.6437,134.521 31.5,137.5C 30.3717,138.262 29.2051,138.929 28,139.5C 27.2506,140.635 27.4173,141.635 28.5,142.5C 35.7952,144.164 43.1285,144.497 50.5,143.5C 49.83,140.29 48.83,137.624 47.5,135.5C 48.9587,135.567 50.2921,135.234 51.5,134.5C 51.9977,137.326 53.3311,139.66 55.5,141.5C 54.8777,143.335 53.5444,144.502 51.5,145C 43.5069,145.5 35.5069,145.666 27.5,145.5C 22.3373,144.338 18.6706,141.338 16.5,136.5C 17.0671,133.529 18.0671,130.695 19.5,128C 19,127.5 18.5,127 18,126.5C 17.5007,121.511 17.3341,116.511 17.5,111.5 Z"/></g>
<g><path style="opacity:1" fill="#a2683f" d="M 38.5,132.5 C 36.7986,131.789 35.7986,130.455 35.5,128.5C 34.9935,124.993 35.6602,121.826 37.5,119C 41.8706,118.371 46.204,118.537 50.5,119.5C 52.5797,129.73 48.5797,134.063 38.5,132.5 Z"/></g>
<g><path style="opacity:1" fill="#34444d" d="M 71.5,109.5 C 72.3909,110.261 73.0576,111.261 73.5,112.5C 74.6888,113.429 76.0222,113.762 77.5,113.5C 78.5284,117.524 81.195,119.524 85.5,119.5C 85.8333,120.167 86.1667,120.833 86.5,121.5C 88.14,126.152 91.14,129.485 95.5,131.5C 87.5,131.5 79.5,131.5 71.5,131.5C 71.5,124.167 71.5,116.833 71.5,109.5 Z"/></g>
<g><path style="opacity:1" fill="#7a8990" d="M 111.5,128.5 C 111.158,129.338 110.492,129.672 109.5,129.5C 107.079,128.109 104.412,127.275 101.5,127C 100.833,126.333 100.167,125.667 99.5,125C 99.5126,122.497 100.346,119.997 102,117.5C 102.333,117.833 102.667,118.167 103,118.5C 104.875,117.258 106.709,115.924 108.5,114.5C 109.584,115.665 110.417,116.998 111,118.5C 111.667,117.833 112.333,117.167 113,116.5C 112.955,119.675 112.122,122.675 110.5,125.5C 110.685,126.584 111.018,127.584 111.5,128.5 Z"/></g>
<g><path style="opacity:1" fill="#989186" d="M 32.5,120.5 C 33.3764,120.369 34.0431,120.702 34.5,121.5C 33.7542,122.736 33.4208,124.07 33.5,125.5C 32.5,125.5 31.5,125.5 30.5,125.5C 30.1201,123.302 30.7868,121.635 32.5,120.5 Z"/></g>
<g><path style="opacity:1" fill="#15232d" d="M 127.5,132.5 C 127.649,133.552 127.483,134.552 127,135.5C 125.855,134.316 124.688,134.316 123.5,135.5C 120.675,135.081 118.509,136.081 117,138.5C 114.296,136.35 114.129,134.184 116.5,132C 116.272,131.601 115.938,131.435 115.5,131.5C 116.234,130.292 116.567,128.959 116.5,127.5C 117.675,127.719 118.675,127.386 119.5,126.5C 117.319,123.844 117.152,121.177 119,118.5C 121.719,119.444 124.552,119.777 127.5,119.5C 128.674,123.847 128.674,128.181 127.5,132.5 Z"/></g>
<g><path style="opacity:1" fill="#c46523" d="M 43.5,122.5 C 43.5,123.833 43.5,125.167 43.5,126.5C 47.7009,128.913 47.3675,130.246 42.5,130.5C 38.7504,131.249 37.0837,129.749 37.5,126C 37.1243,122.881 38.4577,121.048 41.5,120.5C 42.7133,120.747 43.38,121.414 43.5,122.5 Z"/></g>
<g><path style="opacity:1" fill="#fed59a" d="M 43.5,122.5 C 44.5,122.5 45.5,122.5 46.5,122.5C 46.5,123.833 46.5,125.167 46.5,126.5C 45.5,126.5 44.5,126.5 43.5,126.5C 43.5,125.167 43.5,123.833 43.5,122.5 Z"/></g>
<g><path style="opacity:1" fill="#748487" d="M 104.5,110.5 C 106.565,110.517 108.565,110.85 110.5,111.5C 116.444,117.026 116.777,122.693 111.5,128.5C 111.018,127.584 110.685,126.584 110.5,125.5C 112.122,122.675 112.955,119.675 113,116.5C 112.333,117.167 111.667,117.833 111,118.5C 110.417,116.998 109.584,115.665 108.5,114.5C 106.709,115.924 104.875,117.258 103,118.5C 102.667,118.167 102.333,117.833 102,117.5C 100.346,119.997 99.5126,122.497 99.5,125C 100.167,125.667 100.833,126.333 101.5,127C 104.412,127.275 107.079,128.109 109.5,129.5C 109.167,130.167 108.833,130.833 108.5,131.5C 108.167,131.5 107.833,131.5 107.5,131.5C 103.5,131.5 99.5,131.5 95.5,131.5C 91.14,129.485 88.14,126.152 86.5,121.5C 88.144,122.366 89.8107,122.866 91.5,123C 95.6757,118.657 100.009,114.491 104.5,110.5 Z"/></g>
<g><path style="opacity:1" fill="#16242e" d="M 35.5,133.5 C 39.6047,134.109 43.6047,134.775 47.5,135.5C 48.83,137.624 49.83,140.29 50.5,143.5C 43.1285,144.497 35.7952,144.164 28.5,142.5C 27.4173,141.635 27.2506,140.635 28,139.5C 29.2051,138.929 30.3717,138.262 31.5,137.5C 30.6437,134.521 31.9771,133.188 35.5,133.5 Z"/></g>
<g><path style="opacity:1" fill="#15232b" d="M 107.5,131.5 C 107.833,131.5 108.167,131.5 108.5,131.5C 111.097,131.721 111.097,132.221 108.5,133C 111.171,133.833 113.504,133.333 115.5,131.5C 115.938,131.435 116.272,131.601 116.5,132C 114.129,134.184 114.296,136.35 117,138.5C 118.509,136.081 120.675,135.081 123.5,135.5C 121.974,138.52 119.474,140.187 116,140.5C 114.732,140.384 113.398,140.051 112,139.5C 111.517,140.448 111.351,141.448 111.5,142.5C 109.08,142.708 106.747,142.374 104.5,141.5C 102.941,142.074 101.441,142.74 100,143.5C 94.8695,142.758 89.7028,142.091 84.5,141.5C 80.1667,141.5 75.8333,141.5 71.5,141.5C 69.369,140.686 67.0356,140.186 64.5,140C 65.6667,139.5 66.5,138.667 67,137.5C 67.7096,138.973 68.8762,139.64 70.5,139.5C 69.8933,135.097 71.56,133.764 75.5,135.5C 86.4239,134.911 97.0906,133.577 107.5,131.5 Z"/></g>
<g><path style="opacity:0.998" fill="#2a3335" d="M 131.5,130.5 C 127.489,139.18 120.822,144.514 111.5,146.5C 104.5,146.5 97.5,146.5 90.5,146.5C 88.5,144.833 86.5,143.167 84.5,141.5C 89.7028,142.091 94.8695,142.758 100,143.5C 101.441,142.74 102.941,142.074 104.5,141.5C 106.747,142.374 109.08,142.708 111.5,142.5C 111.351,141.448 111.517,140.448 112,139.5C 113.398,140.051 114.732,140.384 116,140.5C 119.474,140.187 121.974,138.52 123.5,135.5C 124.688,134.316 125.855,134.316 127,135.5C 127.483,134.552 127.649,133.552 127.5,132.5C 128.833,131.833 130.167,131.167 131.5,130.5 Z"/></g>
<g><path style="opacity:1" fill="#79888c" d="M 55.5,141.5 C 60.8333,141.5 66.1667,141.5 71.5,141.5C 75.8333,141.5 80.1667,141.5 84.5,141.5C 86.5,143.167 88.5,144.833 90.5,146.5C 69.5,146.5 48.5,146.5 27.5,146.5C 27.5,146.167 27.5,145.833 27.5,145.5C 35.5069,145.666 43.5069,145.5 51.5,145C 53.5444,144.502 54.8777,143.335 55.5,141.5 Z"/></g>
</svg>
